<svg id="Component_42_1" data-name="Component 42 – 1" xmlns="http://www.w3.org/2000/svg" xmlns:xlink="http://www.w3.org/1999/xlink" width="1300" height="431" viewBox="0 0 1300 431">
  <defs>
    <clipPath id="clip-path">
      <rect id="Rectangle_727" data-name="Rectangle 727" width="1300" height="431" transform="translate(-8355 5960)" fill="#064d2e"/>
    </clipPath>
    <clipPath id="clip-path-2">
      <path id="Path_48" data-name="Path 48" d="M0,172.921H872.19V-44.038H0Z" transform="translate(0 44.038)" fill="#fff"/>
    </clipPath>
    <clipPath id="clip-path-3">
      <path id="Path_48-2" data-name="Path 48" d="M0,0H872.19V216.959H0Z" fill="#fff"/>
    </clipPath>
  </defs>
  <rect id="Rectangle_726" data-name="Rectangle 726" width="1300" height="431" fill="#064d2e"/>
  <g id="Mask_Group_12" data-name="Mask Group 12" transform="translate(8355 -5960)" clip-path="url(#clip-path)">
    <g id="Group_720" data-name="Group 720" transform="translate(-8008.548 6130.01) rotate(-20)" opacity="0.112">
      <g id="Group_51" data-name="Group 51" transform="translate(-12.378 -77.276)" clip-path="url(#clip-path-2)">
        <g id="Group_47" data-name="Group 47" transform="translate(0 18.847)">
          <path id="Path_44" data-name="Path 44" d="M121.992,0A55.567,55.567,0,0,0,82.579,16.258l-9.361,9.361-9.361-9.361a55.924,55.924,0,0,0-79.811.985c-21.184,22.17-19.707,57.149,1.971,78.826l80.8,80.8c3.449,3.449,9.361,3.449,13.3,0L161.9,95.084a55.9,55.9,0,0,0,0-78.826A57.558,57.558,0,0,0,121.992,0" transform="translate(31.068)" fill="#fff"/>
        </g>
        <g id="Group_48" data-name="Group 48" transform="translate(248.882 0.002)">
          <path id="Path_45" data-name="Path 45" d="M146.66,64.1,69.312-13.739a9.223,9.223,0,0,0-12.809,0L-21.831,64.595c-20.692,20.692-20.692,55.178,0,75.87A53.747,53.747,0,0,0,16.1,156.23a56.674,56.674,0,0,0,29.067-8.375l-19.707,44.34a5.821,5.821,0,0,0,5.419,8.375H94.93a5.821,5.821,0,0,0,5.419-8.375l-19.707-44.34a52.962,52.962,0,0,0,67.987-7.883c20.2-21.677,18.721-55.178-1.971-75.87" transform="translate(37.35 16.325)" fill="#fff"/>
        </g>
        <g id="Group_49" data-name="Group 49" transform="translate(488.898 0.187)">
          <path id="Path_46" data-name="Path 46" d="M118.584,51.831a49.633,49.633,0,0,0,1.478-12.317,52.715,52.715,0,1,0-105.43,0A49.633,49.633,0,0,0,16.11,51.831C-10,55.28-30.2,76.957-30.2,104.054a52.775,52.775,0,0,0,52.715,52.715A51.672,51.672,0,0,0,50.1,148.886L29.9,195.2a5.821,5.821,0,0,0,5.419,8.375H99.37a5.821,5.821,0,0,0,5.419-8.375L84.1,148.393a52.606,52.606,0,0,0,80.3-44.832c0-26.6-20.2-48.281-45.818-51.73" transform="translate(30.2 13.2)" fill="#fff"/>
        </g>
        <g id="Group_50" data-name="Group 50" transform="translate(723.159 7.7)">
          <path id="Path_47" data-name="Path 47" d="M66.262,3.534c-4.434-5.912-13.3-5.912-17.243,0L-15.028,93.691a11.18,11.18,0,0,0,0,12.317l64.046,90.157c4.434,5.912,13.3,5.912,17.243,0l64.046-90.157a11.18,11.18,0,0,0,0-12.317Z" transform="translate(16.875 0.9)" fill="#fff"/>
        </g>
      </g>
    </g>
    <g id="Group_721" data-name="Group 721" transform="translate(-6666.693 6190.908) rotate(161)" opacity="0.112">
      <g id="Group_51-2" data-name="Group 51" transform="translate(0 0)" clip-path="url(#clip-path-3)">
        <g id="Group_47-2" data-name="Group 47" transform="translate(0 18.66)">
          <path id="Path_44-2" data-name="Path 44" d="M153.059,179.452a55.567,55.567,0,0,1-39.413-16.258l-9.361-9.361-9.361,9.361a55.924,55.924,0,0,1-79.811-.985c-21.184-22.17-19.707-57.149,1.971-78.826l80.8-80.8c3.449-3.449,9.361-3.449,13.3,0l81.782,81.782a55.9,55.9,0,0,1,0,78.826,57.558,57.558,0,0,1-39.906,16.258" fill="#fff"/>
        </g>
        <g id="Group_48-2" data-name="Group 48" transform="translate(248.882 0.062)">
          <path id="Path_45-2" data-name="Path 45" d="M184.01,136.468l-77.348,77.841a9.223,9.223,0,0,1-12.809,0L15.519,135.975c-20.692-20.692-20.692-55.178,0-75.87A53.747,53.747,0,0,1,53.454,44.34a56.674,56.674,0,0,1,29.067,8.375L62.815,8.375A5.821,5.821,0,0,1,68.234,0H132.28A5.821,5.821,0,0,1,137.7,8.375l-19.707,44.34A52.962,52.962,0,0,1,185.98,60.6c20.2,21.677,18.721,55.178-1.971,75.87" fill="#fff"/>
        </g>
        <g id="Group_49-2" data-name="Group 49" transform="translate(488.898 0)">
          <path id="Path_46-2" data-name="Path 46" d="M148.784,151.74a49.633,49.633,0,0,1,1.478,12.317,52.715,52.715,0,0,1-105.43,0A49.633,49.633,0,0,1,46.31,151.74C20.2,148.291,0,126.614,0,99.518A52.775,52.775,0,0,1,52.715,46.8,51.672,51.672,0,0,1,80.3,54.686L60.1,8.375A5.821,5.821,0,0,1,65.524,0H129.57a5.821,5.821,0,0,1,5.419,8.375L114.3,55.178a52.606,52.606,0,0,1,80.3,44.832c0,26.6-20.2,48.281-45.818,51.73" fill="#fff"/>
        </g>
        <g id="Group_50-2" data-name="Group 50" transform="translate(723.159 7.759)">
          <path id="Path_47-2" data-name="Path 47" d="M83.137,197.065c-4.434,5.912-13.3,5.912-17.243,0L1.848,106.908a11.18,11.18,0,0,1,0-12.317L65.894,4.434c4.434-5.912,13.3-5.912,17.243,0l64.046,90.157a11.18,11.18,0,0,1,0,12.317Z" fill="#fff"/>
        </g>
      </g>
    </g>
    <g id="Group_719" data-name="Group 719" transform="translate(-7840.205 6516.593) rotate(-160)" opacity="0.112">
      <g id="Group_51-3" data-name="Group 51" transform="translate(0 0)" clip-path="url(#clip-path-3)">
        <g id="Group_47-3" data-name="Group 47" transform="translate(0 18.66)">
          <path id="Path_44-3" data-name="Path 44" d="M153.059,179.452a55.567,55.567,0,0,1-39.413-16.258l-9.361-9.361-9.361,9.361a55.924,55.924,0,0,1-79.811-.985c-21.184-22.17-19.707-57.149,1.971-78.826l80.8-80.8c3.449-3.449,9.361-3.449,13.3,0l81.782,81.782a55.9,55.9,0,0,1,0,78.826,57.558,57.558,0,0,1-39.906,16.258" fill="#fff"/>
        </g>
        <g id="Group_48-3" data-name="Group 48" transform="translate(248.882 0.062)">
          <path id="Path_45-3" data-name="Path 45" d="M184.01,136.468l-77.348,77.841a9.223,9.223,0,0,1-12.809,0L15.519,135.975c-20.692-20.692-20.692-55.178,0-75.87A53.747,53.747,0,0,1,53.454,44.34a56.674,56.674,0,0,1,29.067,8.375L62.815,8.375A5.821,5.821,0,0,1,68.234,0H132.28A5.821,5.821,0,0,1,137.7,8.375l-19.707,44.34A52.962,52.962,0,0,1,185.98,60.6c20.2,21.677,18.721,55.178-1.971,75.87" fill="#fff"/>
        </g>
        <g id="Group_49-3" data-name="Group 49" transform="translate(488.898 0)">
          <path id="Path_46-3" data-name="Path 46" d="M148.784,151.74a49.633,49.633,0,0,1,1.478,12.317,52.715,52.715,0,0,1-105.43,0A49.633,49.633,0,0,1,46.31,151.74C20.2,148.291,0,126.614,0,99.518A52.775,52.775,0,0,1,52.715,46.8,51.672,51.672,0,0,1,80.3,54.686L60.1,8.375A5.821,5.821,0,0,1,65.524,0H129.57a5.821,5.821,0,0,1,5.419,8.375L114.3,55.178a52.606,52.606,0,0,1,80.3,44.832c0,26.6-20.2,48.281-45.818,51.73" fill="#fff"/>
        </g>
        <g id="Group_50-3" data-name="Group 50" transform="translate(723.159 7.759)">
          <path id="Path_47-3" data-name="Path 47" d="M83.137,197.065c-4.434,5.912-13.3,5.912-17.243,0L1.848,106.908a11.18,11.18,0,0,1,0-12.317L65.894,4.434c4.434-5.912,13.3-5.912,17.243,0l64.046,90.157a11.18,11.18,0,0,1,0,12.317Z" fill="#fff"/>
        </g>
      </g>
    </g>
  </g>
</svg>
