<svg xmlns="http://www.w3.org/2000/svg" xmlns:xlink="http://www.w3.org/1999/xlink" width="99" height="120" viewBox="0 0 99 120">
  <defs>
    <clipPath id="clip-path">
      <rect id="Rectangle_617" data-name="Rectangle 617" width="99" height="120" transform="translate(0 -0.329)" fill="#064d2e"/>
    </clipPath>
  </defs>
  <g id="Group_649" data-name="Group 649" transform="translate(-0.253 0.408)">
    <g id="Group_648" data-name="Group 648" transform="translate(0.253 -0.079)" clip-path="url(#clip-path)">
      <path id="Path_913" data-name="Path 913" d="M40.618,0A10.618,10.618,0,1,1,30,10.618,10.619,10.619,0,0,1,40.618,0" transform="translate(33.303 0.212)" fill="#064d2e"/>
      <path id="Path_914" data-name="Path 914" d="M40.515,24c5.869,0,9.426,1.338,10.424,2.124-1,.786-4.555,2.124-10.424,2.124s-9.426-1.338-10.424-2.124c1-.786,4.555-2.124,10.424-2.124" transform="translate(33.405 27.177)" fill="#064d2e"/>
      <path id="Path_915" data-name="Path 915" d="M40.618,15c6.481,0,10.618,2.516,10.618,4.247S47.1,23.494,40.618,23.494,30,20.978,30,19.247,34.137,15,40.618,15" transform="translate(33.303 17.065)" fill="#064d2e"/>
      <path id="Path_916" data-name="Path 916" d="M0,72.853H33.977V41H0Zm25.525-6.8a1.35,1.35,0,0,1,.127-.382,1.609,1.609,0,0,1,.191-.382,3.641,3.641,0,0,1,.255-.319,2.223,2.223,0,0,1,3.015,0l.255.319a1.694,1.694,0,0,1,.191.382,1.263,1.263,0,0,1,.125.382,2.852,2.852,0,0,1,.045.425,2.124,2.124,0,1,1-4.247,0,2.85,2.85,0,0,1,.042-.425" transform="translate(-0.403 46.277)" fill="#064d2e"/>
      <path id="Path_917" data-name="Path 917" d="M71.088,63.1H76.4a3.185,3.185,0,0,0,0-6.371H71.088a2.124,2.124,0,0,1,0-4.247H76.4a3.185,3.185,0,1,0,0-6.371H54.1a2.124,2.124,0,0,1-1.658-3.451l4.816-6.02a3.58,3.58,0,0,0-5.215-4.884L30.053,51.919a2.125,2.125,0,0,1-1.436.558H18v28.2l10.962,3.655H76.4a3.185,3.185,0,0,0,0-6.371H71.088a2.124,2.124,0,0,1,0-4.247H76.4a3.185,3.185,0,0,0,0-6.371H71.088a2.124,2.124,0,0,1,0-4.247" transform="translate(19.82 34.799)" fill="#064d2e"/>
    </g>
  </g>
</svg>
