<svg id="Component_50_1" data-name="Component 50 – 1" xmlns="http://www.w3.org/2000/svg" xmlns:xlink="http://www.w3.org/1999/xlink" width="24" height="24" viewBox="0 0 24 24">
  <defs>
    <clipPath id="clip-path">
      <rect id="Rectangle_577" data-name="Rectangle 577" width="24" height="24" fill="none"/>
    </clipPath>
  </defs>
  <g id="Group_603" data-name="Group 603" clip-path="url(#clip-path)">
    <path id="Path_836" data-name="Path 836" d="M10.875,0a10.873,10.873,0,0,0-.35,21.74c.115.011.231.01.35.01s.234,0,.35-.01A10.873,10.873,0,0,0,10.875,0ZM9.886,2.307V5.6H7.734a10.342,10.342,0,0,1,.525-1.277A5.019,5.019,0,0,1,9.886,2.307m1.977,0a5.025,5.025,0,0,1,1.627,2.018A10.393,10.393,0,0,1,14.016,5.6H11.864Zm-5.118.68c-.084.149-.169.3-.247.453A13.239,13.239,0,0,0,5.664,5.6H3.7A8.944,8.944,0,0,1,6.745,2.986m8.259,0A8.946,8.946,0,0,1,18.053,5.6H16.086a13.33,13.33,0,0,0-.834-2.163c-.078-.156-.163-.3-.247-.453M2.606,7.58H5.221a19.648,19.648,0,0,0-.247,2.307H2.029A8.825,8.825,0,0,1,2.606,7.58m4.624,0H9.886V9.886H6.941A17.363,17.363,0,0,1,7.23,7.58m4.634,0h2.657a17.584,17.584,0,0,1,.288,2.307H11.864Zm4.665,0h2.616a8.838,8.838,0,0,1,.577,2.307H16.776a19.578,19.578,0,0,0-.247-2.307m-14.5,4.284H4.974a19.618,19.618,0,0,0,.247,2.307H2.606a8.825,8.825,0,0,1-.577-2.307m4.912,0H9.886V14.17H7.23a17.281,17.281,0,0,1-.288-2.307m4.922,0h2.945a17.5,17.5,0,0,1-.288,2.307H11.864Zm4.912,0h2.945a8.851,8.851,0,0,1-.577,2.307H16.529a19.548,19.548,0,0,0,.247-2.307M3.7,16.148H5.664A13.137,13.137,0,0,0,6.5,18.3c.078.156.163.314.247.463A8.909,8.909,0,0,1,3.7,16.148m4.037,0H9.886v3.3a5.078,5.078,0,0,1-1.627-2.029,10.237,10.237,0,0,1-.525-1.267m4.13,0h2.152a10.288,10.288,0,0,1-.525,1.267,5.087,5.087,0,0,1-1.627,2.029Zm4.222,0h1.967A8.9,8.9,0,0,1,15,18.763c.084-.149.169-.308.247-.463A13.167,13.167,0,0,0,16.086,16.148Z" transform="translate(1.125 1.125)"/>
  </g>
</svg>
