<svg id="Component_52_1" data-name="Component 52 – 1" xmlns="http://www.w3.org/2000/svg" xmlns:xlink="http://www.w3.org/1999/xlink" width="21.868" height="23.685" viewBox="0 0 21.868 23.685">
  <defs>
    <clipPath id="clip-path">
      <rect id="Rectangle_584" data-name="Rectangle 584" width="21.868" height="23.685" transform="translate(0 0)" fill="none"/>
    </clipPath>
  </defs>
  <g id="Group_608" data-name="Group 608" clip-path="url(#clip-path)">
    <path id="Path_838" data-name="Path 838" d="M15.49,25.564H6.378S0,31.03,0,37.408c0,3.643,2.743,5.466,4.556,5.466H17.313c1.82,0,4.556-1.823,4.556-5.466,0-6.378-6.378-11.844-6.378-11.844M11.844,38.226v1.459h-1.82V38.231A2.448,2.448,0,0,1,7.78,35.952H9.358c.077.631.713,1.037,1.633,1.037.848,0,1.449-.411,1.449-1,0-.5-.389-.783-1.347-1l-1.015-.217c-1.421-.3-2.12-1.037-2.12-2.227a2.367,2.367,0,0,1,2.055-2.329V28.753h1.82v1.471a2.426,2.426,0,0,1,2.092,2.244H12.4a1.3,1.3,0,0,0-1.439-1.027c-.788,0-1.356.379-1.356.973,0,.481.372.748,1.287.952l.94.2c1.568.329,2.244,1,2.244,2.217a2.434,2.434,0,0,1-2.234,2.444" transform="translate(0 -19.189)"/>
    <path id="Path_839" data-name="Path 839" d="M31.956.907H29.438a2.743,2.743,0,0,0-3.874-.2,2.812,2.812,0,0,0-.2.2H22.845A.913.913,0,0,0,22,2.153l.845,2.4h9.111l.845-2.4A.913.913,0,0,0,31.956.907" transform="translate(-16.466 0)"/>
  </g>
</svg>
