<?xml version="1.0" encoding="UTF-8"?>
<svg width="1200pt" height="1200pt" version="1.1" viewBox="0 0 1200 1200" xmlns="http://www.w3.org/2000/svg">
 <path d="m979.32 505.08c-5.5547-16.988-15.746-32.09-29.418-43.602-13.676-11.512-30.293-18.977-47.98-21.555l-54.242-7.9219c-29.219-4.2617-56.957-15.582-80.812-32.98-23.859-17.395-43.117-40.344-56.105-66.859l-24.602-50.281c-10.586-21.621-28.91-38.477-51.34-47.223-22.43-8.7461-47.328-8.7461-69.758 0s-40.754 25.602-51.344 47.223l-24.602 50.281h0.003906c-12.98 26.5-32.219 49.438-56.055 66.836-23.836 17.395-51.551 28.723-80.746 33.004l-54.238 7.9219h-0.003906c-23.691 3.4688-45.234 15.664-60.395 34.199-15.164 18.535-22.852 42.066-21.555 65.977 1.293 23.91 11.477 46.473 28.551 63.262l40.441 39.719c20.898 20.531 36.527 45.812 45.555 73.684 9.0234 27.871 11.18 57.512 6.2852 86.398l-9.6016 56.641c-4.0195 23.68 0.98047 48.008 14.016 68.18 13.039 20.176 33.164 34.727 56.406 40.789 23.242 6.0586 47.91 3.1875 69.141-8.0508l48-25.441v0.003906c26.207-13.891 55.418-21.152 85.078-21.152s58.871 7.2617 85.078 21.152l48 25.441v-0.003906c21.23 11.238 45.898 14.109 69.141 8.0508 23.242-6.0625 43.367-20.613 56.406-40.789 13.035-20.172 18.035-44.5 14.016-68.18l-9.6016-56.641c-4.8945-28.887-2.7383-58.527 6.2852-86.398 9.0273-27.871 24.656-53.152 45.555-73.684l40.441-39.719c12.754-12.523 21.758-28.359 25.996-45.723 4.2422-17.363 3.5508-35.566-1.9961-52.559m-132 69.48c-31.992 31.379-55.918 70.031-69.73 112.66-13.812 42.625-17.102 87.965-9.5898 132.14l9.6016 56.641-48-25.441c-40.055-21.223-84.691-32.32-130.02-32.32-45.328 0-89.965 11.098-130.02 32.32l-48 25.441 9.6016-56.641c7.5156-44.164 4.2383-89.496-9.5508-132.12s-37.688-81.285-69.648-112.68l-39.961-39.719 54.238-7.9219v0.003906c44.641-6.5469 87.012-23.867 123.45-50.461 36.441-26.598 65.859-61.668 85.707-102.18l24.602-50.281 24.602 50.281c19.84 40.52 49.254 75.594 85.699 102.19 36.441 26.594 78.82 43.91 123.46 50.449l54.238 7.9219z"/>
</svg>
