<svg id="Component_25_1" data-name="Component 25 – 1" xmlns="http://www.w3.org/2000/svg" xmlns:xlink="http://www.w3.org/1999/xlink" width="47.053" height="43.792" viewBox="0 0 47.053 43.792">
  <defs>
    <clipPath id="clip-path">
      <rect id="Rectangle_600" data-name="Rectangle 600" width="47.053" height="43.792" fill="#cc9ae2"/>
    </clipPath>
  </defs>
  <g id="Group_625" data-name="Group 625" clip-path="url(#clip-path)">
    <path id="Path_875" data-name="Path 875" d="M53.142,22.946a4.223,4.223,0,0,0,.8-2.939c-.184-2.633-1.959-4.164-4.776-4.225H36.3c.245-.49.367-.735.49-1.041a14.244,14.244,0,0,0,.674-10.287A5.862,5.862,0,0,0,33.18.167c-2.266-.612-3.735.49-4.1,2.755-.306,1.9-.735,3.8-1.163,5.695A12.29,12.29,0,0,1,20.566,17.5c-.674.306-1.225.674-1.9.918a1.077,1.077,0,0,0-.735,1.163V37.886c0,.918-.306,2.082.122,2.694.49.612,1.715.735,2.572,1.041a34.51,34.51,0,0,0,11.45,2.143c3.613,0,7.287.061,10.9,0A4.354,4.354,0,0,0,47.508,38.5c-.061-.367-.184-.674-.245-1.041,3.123-1.408,3.613-2.388,3.184-6.368.061-.061.061-.122.122-.122a4.509,4.509,0,0,0,2.449-7.042.843.843,0,0,1,.122-.98" transform="translate(-6.911 0)" fill="#cc9ae2"/>
    <path id="Path_876" data-name="Path 876" d="M6.858,29.773H1.163A1.163,1.163,0,0,0,0,30.936V52.184a1.163,1.163,0,0,0,1.163,1.163H6.858a1.163,1.163,0,0,0,1.163-1.163V30.936a1.126,1.126,0,0,0-1.163-1.163m-2.817,21a1.653,1.653,0,1,1,1.653-1.653,1.73,1.73,0,0,1-1.653,1.653" transform="translate(0 -11.542)" fill="#cc9ae2"/>
  </g>
</svg>
