<svg id="Component_26_1" data-name="Component 26 – 1" xmlns="http://www.w3.org/2000/svg" xmlns:xlink="http://www.w3.org/1999/xlink" width="47.053" height="44.921" viewBox="0 0 47.053 44.921">
  <defs>
    <clipPath id="clip-path">
      <rect id="Rectangle_600" data-name="Rectangle 600" width="47.053" height="44.92" fill="#465beb"/>
    </clipPath>
  </defs>
  <g id="Group_625" data-name="Group 625" clip-path="url(#clip-path)">
    <path id="Path_875" data-name="Path 875" d="M53.142,21.383a4.415,4.415,0,0,1,.8,3.015c-.184,2.7-1.959,4.271-4.776,4.334H36.3c.245.5.367.754.49,1.068a14.958,14.958,0,0,1,.674,10.552,5.94,5.94,0,0,1-4.286,4.4c-2.266.628-3.735-.5-4.1-2.826-.306-1.947-.735-3.894-1.163-5.841a12.534,12.534,0,0,0-7.348-9.107c-.674-.314-1.225-.691-1.9-.942a1.107,1.107,0,0,1-.735-1.193V6.057c0-.942-.306-2.136.122-2.764.49-.628,1.715-.754,2.572-1.068a33.744,33.744,0,0,1,11.45-2.2c3.613,0,7.287-.063,10.9,0a4.43,4.43,0,0,1,4.531,5.4c-.061.377-.184.691-.245,1.068,3.123,1.445,3.613,2.45,3.184,6.532.061.063.061.126.122.126,2.939.628,4.348,4.46,2.449,7.223a.882.882,0,0,0,.122,1" transform="translate(-6.911 0)" fill="#465beb"/>
    <path id="Path_876" data-name="Path 876" d="M6.858,53.955H1.163A1.178,1.178,0,0,1,0,52.761v-21.8a1.178,1.178,0,0,1,1.163-1.193H6.858a1.178,1.178,0,0,1,1.163,1.193v21.8a1.141,1.141,0,0,1-1.163,1.193M4.041,32.411a1.7,1.7,0,1,0,1.653,1.7,1.752,1.752,0,0,0-1.653-1.7" transform="translate(0 -27.735)" fill="#465beb"/>
  </g>
</svg>
