<svg id="Component_51_1" data-name="Component 51 – 1" xmlns="http://www.w3.org/2000/svg" xmlns:xlink="http://www.w3.org/1999/xlink" width="24" height="14.754" viewBox="0 0 24 14.754">
  <defs>
    <clipPath id="clip-path">
      <rect id="Rectangle_583" data-name="Rectangle 583" width="24" height="14.754" fill="none"/>
    </clipPath>
  </defs>
  <rect id="Rectangle_578" data-name="Rectangle 578" width="11.318" height="1.87" transform="translate(12.683 6.442)"/>
  <rect id="Rectangle_579" data-name="Rectangle 579" width="11.318" height="1.869" transform="translate(12.683 3.208)"/>
  <rect id="Rectangle_580" data-name="Rectangle 580" width="24" height="1.869" transform="translate(0 12.884)"/>
  <rect id="Rectangle_581" data-name="Rectangle 581" width="24" height="1.869" transform="translate(0 9.676)"/>
  <rect id="Rectangle_582" data-name="Rectangle 582" width="11.318" height="1.869" transform="translate(12.683)"/>
  <g id="Group_606" data-name="Group 606">
    <g id="Group_605" data-name="Group 605" transform="translate(0 0)" clip-path="url(#clip-path)">
      <path id="Path_837" data-name="Path 837" d="M11.318,0H0V8.312H11.318ZM3.587,5.406l-.505.429.152.632a.093.093,0,0,1-.025.076.047.047,0,0,1-.076,0l-.556-.328-.556.328H2c-.025,0-.025,0-.051-.025a.093.093,0,0,1-.025-.076l.152-.632-.505-.429a.093.093,0,0,1-.025-.076.054.054,0,0,1,.051-.051L2.248,5.2,2.5,4.6a.051.051,0,1,1,.1,0l.253.606.657.051a.054.054,0,0,1,.051.051c.051.051.051.076.025.1m0-3.006-.505.429.152.632a.093.093,0,0,1-.025.076.047.047,0,0,1-.076,0l-.556-.328-.556.328H2c-.025,0-.025,0-.051-.025a.093.093,0,0,1-.025-.076L2.072,2.8l-.505-.429A.093.093,0,0,1,1.541,2.3a.054.054,0,0,1,.051-.051L2.248,2.2,2.5,1.592a.051.051,0,1,1,.1,0l.253.606.657.051a.054.054,0,0,1,.051.051c.051.051.051.076.025.1M6.669,5.406l-.505.429.152.632a.093.093,0,0,1-.025.076.047.047,0,0,1-.076,0l-.556-.328L5.1,6.543H5.078c-.025,0-.025,0-.051-.025A.093.093,0,0,1,5,6.442l.152-.632-.505-.429a.093.093,0,0,1-.025-.076.054.054,0,0,1,.051-.051L5.331,5.2,5.583,4.6a.051.051,0,1,1,.1,0l.253.606.657.051a.054.054,0,0,1,.051.051c.051.051.051.076.025.1m0-3.006-.505.429.152.632a.093.093,0,0,1-.025.076.047.047,0,0,1-.076,0l-.556-.328L5.1,3.537H5.078c-.025,0-.025,0-.051-.025A.093.093,0,0,1,5,3.436L5.154,2.8l-.505-.429A.093.093,0,0,1,4.623,2.3a.054.054,0,0,1,.051-.051L5.331,2.2l.253-.606a.051.051,0,1,1,.1,0l.253.606.657.051a.054.054,0,0,1,.051.051c.051.051.051.076.025.1M9.726,5.406l-.505.429.152.632a.093.093,0,0,1-.025.076.047.047,0,0,1-.076,0l-.556-.328-.556.328H8.135c-.025,0-.025,0-.051-.025a.093.093,0,0,1-.025-.076l.152-.632-.505-.429V5.331a.054.054,0,0,1,.051-.051l.657-.051.253-.606a.072.072,0,0,1,.126,0l.253.606L9.7,5.28a.054.054,0,0,1,.051.051.093.093,0,0,1-.025.076m0-3.006-.505.429.152.632a.093.093,0,0,1-.025.076.047.047,0,0,1-.076,0l-.556-.328-.556.328H8.135c-.025,0-.025,0-.051-.025a.093.093,0,0,1-.025-.076l.152-.606L7.705,2.4V2.324a.054.054,0,0,1,.051-.051l.657-.051.253-.606a.072.072,0,0,1,.126,0l.253.606.657.051a.054.054,0,0,1,.051.051.093.093,0,0,1-.025.076" transform="translate(0 0)"/>
    </g>
  </g>
</svg>
