<?xml version="1.0" encoding="UTF-8"?>
<svg id="Layer_1" data-name="Layer 1" xmlns="http://www.w3.org/2000/svg" viewBox="0 0 1100 250">
  <rect width="1100" height="250" style="fill: #cc9ae4; stroke-width: 0px;"/>
  <path d="m548.89,214.49c-28.46-12.29-47.34-30.67-59.1-53.43-11.7-22.62-16.31-49.47-16.31-78.86v-14.57c0-.6.19-1.18.54-1.66.35-.48.85-.84,1.42-1.02l73.52-29.46c.67-.27,1.41-.27,2.08,0l73.72,29.54c.52.21.96.56,1.28,1.03.31.46.48,1.01.48,1.57v14.57c0,29.39-4.61,56.24-16.31,78.86-11.76,22.76-30.64,41.14-59.1,53.43-.71.31-1.51.31-2.21,0h0Zm23.78-98.15h-45.35c-1.07,0-1.94.87-1.95,1.95v34.69c0,1.07.87,1.94,1.95,1.95h45.35c1.07,0,1.94-.87,1.95-1.95v-34.69c0-1.07-.87-1.94-1.95-1.95Zm-6.33-5.61v-10.62c0-5.84-3.12-11.24-8.17-14.16-5.06-2.92-11.29-2.92-16.35,0-5.06,2.92-8.17,8.32-8.17,14.16v10.62h32.7Zm-38.3,0h-.72,0c-2,0-3.92.8-5.34,2.22-1.42,1.42-2.21,3.34-2.22,5.34v34.69c0,2,.8,3.92,2.22,5.34,1.42,1.42,3.34,2.21,5.34,2.22h45.34c2,0,3.92-.8,5.34-2.22,1.42-1.42,2.21-3.34,2.22-5.34v-34.69c0-2-.8-3.92-2.21-5.34-1.42-1.42-3.34-2.21-5.34-2.22h-.72v-10.62c0-7.84-4.18-15.09-10.98-19.01-6.79-3.92-15.16-3.92-21.95,0-6.79,3.92-10.98,11.17-10.98,19.01v10.62h0Zm24.97,17.77h0c-.94-.94-2.26-1.39-3.58-1.22-1.32.17-2.48.95-3.15,2.1-.67,1.15-.76,2.55-.25,3.78.51,1.23,1.56,2.15,2.84,2.5,1.28.34,2.66.07,3.71-.74,1.05-.81,1.67-2.06,1.67-3.39,0-1.13-.45-2.22-1.25-3.02h0Zm-.22,12.5h0c3.06-.91,5.49-3.23,6.53-6.25,1.04-3.02.56-6.35-1.3-8.95-1.85-2.6-4.85-4.14-8.04-4.14s-6.18,1.54-8.04,4.14c-1.85,2.6-2.34,5.93-1.3,8.95,1.04,3.02,3.47,5.35,6.53,6.25v5.82c0,1,.53,1.93,1.4,2.43.87.5,1.94.5,2.8,0,.87-.5,1.4-1.43,1.4-2.43v-5.82Z" style="fill: #465bec; fill-rule: evenodd; stroke-width: 0px;"/>
</svg>