<?xml version="1.0" encoding="UTF-8"?>
<svg width="1200pt" height="1200pt" version="1.1" viewBox="0 0 1200 1200" xmlns="http://www.w3.org/2000/svg">
 <g fill="#054c2e">
  <path d="m693.04 738.91 0.41016-2.168c1.1523-5.9219 4.6328-23.785 8.8086-45.18l19.195-98.5-0.003906 0.003906c4.0469-20.805-0.55469-42.359-12.746-59.695-12.191-17.336-30.922-28.957-51.867-32.184-20.945-3.2305-42.305 2.2148-59.148 15.078s-27.723 32.031-30.129 53.09c-1.207 9.2148-23.883 129.12-33.574 180.32-3.8008 20.062-6.5703 34.695-7.3164 38.797-7.5039 31.492-1.043 64.695 17.723 91.078 17.57 20.777 43.332 32.848 70.543 33.051 1.6875 0.078125 3.3906 0.125 5.1133 0.125 20.633-0.39453 40.883-5.6445 59.109-15.324 9.2695-4.707 17.922-10.539 25.762-17.363l18.184-16.148-17.328-17.047c-6.6602-6.543-26.883-26.43-12.734-107.93zm-16.211-154.51s-28.375 145.55-28.461 146.03l-0.37109 2.2539c-9.4102 55.23-6.4453 95.746 9.4453 124.76-12.371 6.4766-26.133 9.8242-40.094 9.7578-14.172 0.125-27.754-5.6836-37.445-16.027-10.355-16.277-13.426-36.145-8.4727-54.793 0.69141-3.7891 3.4453-18.324 7.207-38.262 20.988-110.9 33.293-176.51 34.074-183.68h0.003906c1.0195-8.7656 5.5664-16.738 12.59-22.082 7.0234-5.3398 15.918-7.5938 24.641-6.2383 8.7188 1.3516 16.512 6.1992 21.586 13.422 5.0703 7.2227 6.9844 16.195 5.2969 24.859z"/>
  <path d="m671.24 287.28c-20.547 0-40.254 8.1641-54.781 22.691-14.527 14.527-22.688 34.23-22.688 54.777s8.1602 40.25 22.688 54.777c14.527 14.527 34.234 22.691 54.777 22.691 20.547 0 40.25-8.1602 54.781-22.691 14.527-14.527 22.688-34.23 22.688-54.777-0.023437-20.539-8.1953-40.227-22.719-54.75-14.52-14.523-34.211-22.691-54.746-22.719zm0 109.48v0.003907c-8.4922 0-16.637-3.375-22.641-9.3789-6.0039-6.0039-9.375-14.145-9.375-22.637 0-8.4922 3.3711-16.633 9.375-22.637s14.148-9.375 22.637-9.375c8.4922 0 16.637 3.3711 22.641 9.375s9.375 14.145 9.375 22.637c-0.011719 8.4883-3.3867 16.625-9.3906 22.625-6 6-14.137 9.3789-22.621 9.3906z"/>
  <path d="m1094.3 378.93c-58.07-120.21-161.09-212.77-286.82-257.68-125.73-44.914-264.07-38.578-385.17 17.641-121.1 56.215-215.23 157.8-262.06 282.82-46.84 125.02-42.629 263.45 11.719 385.39l7.1992 16.23-13.992 10.918c-3.2656 2.5391-92.488 62.48-92.488 62.48-5.9453 3.2656-10.797 8.1992-13.961 14.199-3.1641 5.9961-4.4961 12.789-3.832 19.539 0.83594 6.7656 3.3906 27.309 52.84 44.887h0.003906c65.922 20.496 135.05 28.734 203.94 24.305l8.9297-0.94141 7.4844 5.3984c90.832 69.426 202.42 106.2 316.73 104.38s224.68-42.121 313.25-114.4c88.582-72.277 150.21-172.31 174.93-283.93s11.078-228.32-38.711-331.24zm-20.473 373.64-0.003906 0.003906c-32.547 93.488-94.219 174.08-175.95 229.93-81.734 55.852-179.23 84.02-278.15 80.371-98.93-3.6484-194.08-38.926-271.48-100.64l-2.1406-1.7422c-12.391-6.3789-26.559-8.4414-40.254-5.8594-18.445 1.9766-36.996 2.8398-55.547 2.5938-5.3164-0.16016-27.227-1.8984-27.227-1.8984l-0.003906-0.003906c-23.609-1.8828-46.961-6.2188-69.672-12.941l-46.734-13.352 70.391-47.797 0.003906-0.003906c12.301-7.4062 23.324-16.746 32.652-27.664 9.4102-12.938 13.633-28.934 11.832-44.832l-2.6172-8.418c-53.121-110.64-60.141-237.86-19.52-353.68 40.625-115.82 125.57-210.78 236.16-264 110.6-53.227 237.8-60.367 353.66-19.852 115.86 40.512 210.89 125.36 264.23 235.91 26.613 54.711 42.117 114.16 45.613 174.9 3.4922 60.742-5.0859 121.57-25.246 178.98z"/>
 </g>
</svg>
