<?xml version="1.0" encoding="UTF-8"?>
<svg width="1200pt" height="1200pt" version="1.1" viewBox="0 0 1200 1200" xmlns="http://www.w3.org/2000/svg">
 <g fill="#054c2e">
  <path d="m976.8 540c6 15.602 10.801 31.199 15.602 45.602 8.3984 25.199 43.199 25.199 51.602 0 4.8008-14.398 10.801-30 15.602-45.602 16.801-45.602 39.602-88.801 69.602-126 20.398-25.199 33.602-57.602 33.602-92.398 0-82.801-68.398-148.8-152.4-145.2-74.398 3.6016-135.6 66-138 140.4-1.1992 36 10.801 68.398 31.199 94.801 32.391 39.598 56.391 82.797 73.191 128.4zm42-291.6c40.801 0 74.398 33.602 74.398 74.398 0 40.801-33.602 74.398-74.398 74.398-40.801 0-74.398-33.602-74.398-74.398-0.003906-41.996 33.598-74.398 74.398-74.398z"/>
  <path d="m349.2 356.4c48-19.199 69.602-74.398 50.398-121.2-19.199-48-74.398-69.602-121.2-50.398-46.801 19.199-69.602 74.398-50.398 121.2 20.398 48 74.398 69.602 121.2 50.398z"/>
  <path d="m208.8 674.4-21.602 75.602-84 118.8c-13.199 19.199-13.199 45.602 3.6016 62.398 9.6016 9.6016 21.602 14.398 34.801 14.398 14.398 0 30-7.1992 38.398-20.398l90-127.2c3.6016-4.8008 6-9.6016 7.1992-14.398l15.602-55.199 37.199 27.602 33.602 152.4c4.8008 22.801 25.199 37.199 46.801 37.199 10.801 0 22.801-3.6016 32.398-13.199 13.199-12 16.801-30 13.199-46.801l-37.199-168c-2.3984-12-9.6016-21.602-19.199-28.801l-79.199-57.602 20.398-115.2 24 15.602c4.8008 3.6016 10.801 6 18 6l84 10.801 74.398 376.8c2.3984 9.6016 9.6016 15.602 19.199 15.602h3.6016c10.801-2.3984 18-12 15.602-22.801l-73.199-370.8c14.398-6 25.199-20.398 25.199-38.398 0-21.602-18-39.602-39.602-42l-90-10.801s-45.602-31.199-86.398-57.602c-58.801-37.203-111.6-14.402-127.2 33.598-10.801 32.398-19.199 94.801-26.398 152.4-3.6016 37.203 14.398 72 46.801 90z"/>
  <path d="m133.2 596.4 28.801-189.6c2.3984-12-8.3984-22.801-20.398-20.398l-74.398 12c-10.805 2.4023-19.203 10.801-20.402 21.602l-16.801 129.6c-1.1992 9.6016 3.6016 19.199 12 25.199l62.398 36c12 6 26.402-1.1992 28.801-14.402z"/>
  <path d="m1041.6 765.6h-258c-44.398 0-80.398-36-80.398-80.398s36-80.398 80.398-80.398h122.4c13.199 0 24-10.801 24-24 0-13.199-10.801-24-24-24l-122.4-0.003907c-70.801 0-128.4 57.602-128.4 128.4 0 70.801 57.602 128.4 128.4 128.4h258c44.398 0 80.398 36 80.398 80.398 0 44.398-36 80.398-80.398 80.398l-970.8 0.003907c-13.199 0-24 10.801-24 24 0 13.199 10.801 24 24 24h970.8c70.801 0 128.4-57.602 128.4-128.4 0-70.801-57.602-128.4-128.4-128.4z"/>
 </g>
</svg>
