<?xml version="1.0" encoding="UTF-8"?>
<svg width="1200pt" height="1200pt" version="1.1" viewBox="0 0 1200 1200" xmlns="http://www.w3.org/2000/svg">
 <g fill="#054c2e" fill-rule="evenodd">
  <path d="m697.39 299.72c-1.7461 0.046875-3.4805 0.39453-5.1055 1.0273-1.625 0.63281-3.1406 1.5508-4.4531 2.6992-1.3125 1.1484-2.4258 2.5234-3.2734 4.0508s-1.4258 3.1992-1.707 4.9219c-0.27734 1.7227-0.25391 3.4922 0.066406 5.207 0.32422 1.7148 0.94531 3.3711 1.832 4.875 1.7695 3.0078 4.6172 5.3672 7.8984 6.5508 84.09 31.684 144 112.88 144 208.26 0 64.625-27.508 122.62-71.414 163.34-1.8086 1.6758-3.1953 3.8008-4.0039 6.1289-0.80859 2.3281-1.0352 4.8555-0.65625 7.2891l19.199 122.9-235.67 61.52-11.309-86.613c-0.27344-2.0781-0.98438-4.1016-2.0703-5.8945-1.0898-1.793-2.5547-3.3555-4.2773-4.5508-1.7227-1.1992-3.6953-2.0352-5.7539-2.4336-2.0586-0.40234-4.1992-0.36328-6.2461 0.097656l-70.469 16.07-12.066-73.754c-0.28516-1.75-0.88281-3.4492-1.7578-4.9961-0.87109-1.543-2.0195-2.9336-3.3711-4.082-1.3516-1.1484-2.9062-2.0586-4.5742-2.668-1.6641-0.61328-3.4375-0.92969-5.2148-0.92969h-50.145l28.359-134.73c0.25-1.1875 0.35938-2.4102 0.31641-3.6211l-2.6055-77.418c8.8828-81.742 62.059-150.16 134.99-180.88 1.8516-0.74609 3.5547-1.8672 4.9727-3.2734 1.4219-1.4062 2.5586-3.0938 3.3242-4.9375s1.1641-3.8438 1.1602-5.8398c-0.007812-1.9961-0.41016-3.9922-1.1836-5.8359-0.77734-1.8398-1.9219-3.5273-3.3477-4.9258-1.4258-1.3984-3.1328-2.5117-4.9883-3.25s-3.8594-1.1055-5.8555-1.0703c-1.9961 0.039062-3.9883 0.46875-5.8164 1.2734-83.215 35.055-143.71 113.28-153.43 206.58-0.070312 0.6875-0.097656 1.3828-0.074218 2.0742l2.582 76.691-31.816 151.16c-0.46094 2.1914-0.42578 4.4844 0.10156 6.6641 0.52734 2.1758 1.543 4.2344 2.9531 5.9727s3.2148 3.1602 5.2383 4.1211c2.0234 0.96484 4.2617 1.4688 6.5 1.4688h55.93l12.586 76.953c0.33203 2.0312 1.082 3.9883 2.1953 5.7227 1.1094 1.7305 2.5781 3.2305 4.2852 4.3789 1.707 1.1484 3.6484 1.9414 5.6719 2.3203s4.1211 0.33203 6.125-0.12109l69.953-15.957 11.375 87.133c0.27734 2.1172 1.0078 4.1758 2.1328 5.9922s2.6367 3.3906 4.4102 4.5859c1.7695 1.1953 3.8008 2.0039 5.9062 2.3633 2.1055 0.36328 4.2891 0.26562 6.3555-0.27344l265.48-69.301c1.793-0.46875 3.4961-1.2695 5-2.3477 1.5039-1.0781 2.8086-2.4375 3.8242-3.9883 1.0156-1.5469 1.7422-3.2852 2.1328-5.0977s0.44531-3.6914 0.16016-5.5234l-20.094-128.62c46.375-45.852 75.219-109.57 75.219-179.87 0-108.05-67.953-200.52-163.57-236.55-1.875-0.73828-3.8984-1.0938-5.9141-1.043z"/>
  <path d="m570.9 267.45c-1.9766 0-4.0781 0.42578-5.9062 1.1797-1.8281 0.75781-3.3242 1.9062-4.7227 3.3047-1.3984 1.3984-2.5469 3.1328-3.3047 4.9609-0.75781 1.8281-1.1797 3.6914-1.1797 5.668v222.94c-30.957 17.348-51.957 50.465-51.957 88.324 0 31.949 14.785 60.531 38.023 79.113l-35.188 60.93c-1.0195 1.7148-1.6094 3.6953-1.8906 5.668-0.28125 1.9766-0.26562 3.9766 0.23438 5.9062 0.50781 1.9297 1.3906 3.6094 2.5977 5.1953s2.7617 3.0156 4.4883 4.0156c1.7266 0.99609 3.6914 1.6328 5.668 1.8906s3.9805 0.074219 5.9062-0.46875c1.9219-0.52734 3.8594-1.3711 5.4297-2.5977 1.5703-1.2266 2.8047-2.75 3.7773-4.4883l35.188-60.93c11.457 4.5195 23.824 7.0859 36.84 7.0859 55.766 0 101.31-45.547 101.31-101.31 0-37.859-20.984-70.977-51.957-88.324v-222.94c0-1.9766-0.42188-3.8398-1.1797-5.668-0.75781-1.8281-1.9062-3.5586-3.3047-4.9609-1.3984-1.3984-2.8945-2.5508-4.7227-3.3047-1.8281-0.75781-3.9258-1.1797-5.9023-1.1797h-68.25zm15.113 30.23h38.023v196.72c-6.1719-1.1836-12.621-1.8906-19.129-1.8906-6.5078 0-12.719 0.70703-18.895 1.8906z"/>
 </g>
</svg>
