<?xml version="1.0" encoding="UTF-8"?>
<svg width="1200pt" height="1200pt" version="1.1" viewBox="0 0 1200 1200" xmlns="http://www.w3.org/2000/svg">
 <g fill="#054c2e">
  <path d="m771.84 196.32v-39.121c0-9.5469-3.793-18.703-10.543-25.453-6.7539-6.7539-15.91-10.547-25.457-10.547l-578.88-1.1992c-9.5469 0-18.707 3.793-25.457 10.543-6.75 6.7539-10.543 15.91-10.543 25.457v39.238z"/>
  <path d="m120 288.72v202.08c0 9.5469 3.793 18.703 10.543 25.453 6.7539 6.7539 15.91 10.547 25.457 10.547l579.12 1.1992c9.5469 0 18.703-3.793 25.453-10.543 6.7539-6.7539 10.547-15.91 10.547-25.457v-201.96zm602.16 90.602v60c-0.0625 8.2031-3.3398 16.055-9.1289 21.867-5.7891 5.8086-13.629 9.1172-21.832 9.2109l-127.2-0.23828c-8.2891-0.0625-16.219-3.3828-22.078-9.2422s-9.1797-13.789-9.2422-22.078v-68.402 0.003906c0-8.3086 3.3008-16.273 9.1719-22.148 5.875-5.875 13.844-9.1719 22.148-9.1719h127.44c8.2969 0.0625 16.23 3.4023 22.074 9.293 5.8438 5.8867 9.125 13.848 9.125 22.145v8.6406z"/>
  <path d="m126.53 276.72 0.10938-69.48 639.24 1.0039-0.10938 69.48z"/>
  <path d="m584.4 351.12h-20.398c-5.0938 0.03125-9.9727 2.0586-13.586 5.6484-3.6133 3.5938-5.6719 8.457-5.7344 13.551v2.7617l39.719-0.003906z"/>
  <path d="m544.56 438.84c-0.03125 5.1562 2.0117 10.105 5.668 13.738 3.6562 3.6367 8.6172 5.6445 13.773 5.582h20.398v-21.961h-39.602z"/>
  <path d="m670.8 458.28h20.398c5.125 0 10.039-2.0352 13.66-5.6602 3.625-3.6211 5.6602-8.5391 5.6602-13.66v-2.7617h-39.602z"/>
  <path d="m691.44 351.24h-20.398v22.078h39.719v-2.7617 0.003906c-0.03125-5.0938-2.0625-9.9688-5.6523-13.582-3.5898-3.6133-8.457-5.6719-13.551-5.7383z"/>
  <path d="m596.29 458.21 0.035157-21.961 62.52 0.097656-0.035156 21.961z"/>
  <path d="m596.53 373.24 0.035156-21.961 62.52 0.097656-0.035156 21.961z"/>
  <path d="m543.72 423.6v-39h165.96v39z"/>
  <path d="m984 552c-0.82422 2.1367-0.35938 4.5586 1.1992 6.2383l42 45.602c1.1641 1.2109 2.7617 1.9023 4.4414 1.9219 2.3867-0.03125 4.5234-1.5 5.3984-3.7227l39.48-48c1.5273-1.8164 1.8086-4.3711 0.71875-6.4805-0.9375-2.2344-3.2227-3.6016-5.6367-3.3594l-35.039 1.6797h-0.003906c-2.9336-47.406-22.973-92.133-56.398-125.88-67.559-64.922-168-55.801-172.56-55.32-1.5859 0.12109-3.0547 0.87891-4.0703 2.0977-1.0195 1.2227-1.4961 2.8008-1.332 4.3828 0.12109 1.5859 0.87891 3.0508 2.0977 4.0703 1.2227 1.0156 2.8047 1.4961 4.3828 1.3281 1.0781 0 99.719-8.8789 163.32 52.199v0.003907c31.367 31.73 50.133 73.781 52.801 118.32l-36 1.8008c-2.0352 0.14062-3.8477 1.3203-4.8008 3.1211z"/>
  <path d="m379.32 828.6c-1.0781 0-99.719 8.8789-163.32-52.078v-0.003907c-31.348-31.793-50.105-73.871-52.801-118.44l36-1.6797c2.3359-0.10547 4.3945-1.5547 5.2812-3.7188 0.84375-2.1758 0.37891-4.6406-1.1992-6.3594l-42-45.602c-1.1719-1.1055-2.7109-1.7461-4.3203-1.7969-2.4219-0.11328-4.6445 1.3359-5.5195 3.5977l-39.48 48c-1.5156 1.7578-1.8555 4.2383-0.87109 6.3398 0.98438 2.0977 3.1094 3.4219 5.4297 3.3789l35.039-1.6797c2.8359 47.633 22.93 92.598 56.52 126.48 52.078 49.922 123.6 56.039 156 56.039h16.801c1.5938-0.14844 3.0625-0.93359 4.0781-2.1719s1.4922-2.832 1.3242-4.4258c-0.015625-1.7539-0.78906-3.4102-2.1289-4.543-1.3398-1.1289-3.1016-1.6172-4.832-1.3359z"/>
  <path d="m461.04 1077.6h618.96v-377.04h-618.96zm45.48-276c0.0625-3.2891 2.7148-5.9375 6-6 13.34-0.77734 25.84-6.7539 34.816-16.652 8.9766-9.8945 13.711-22.918 13.184-36.27 0-3.3125 2.6875-6 6-6h406.8c1.5898 0 3.1172 0.63281 4.2422 1.7578s1.7578 2.6523 1.7578 4.2422c-0.52734 13.352 4.207 26.375 13.184 36.27 8.9766 9.8984 21.477 15.875 34.816 16.652 3.2852 0.0625 5.9375 2.7109 6 6v175.2c-0.0625 3.2852-2.7148 5.9336-6 6-13.34 0.77344-25.84 6.7539-34.816 16.648-8.9766 9.8984-13.711 22.922-13.184 36.27 0 1.5938-0.63281 3.1172-1.7578 4.2422s-2.6523 1.7578-4.2422 1.7578h-406.2c-3.3164 0-6-2.6836-6-6 0.52344-13.348-4.2109-26.371-13.188-36.27-8.9727-9.8945-21.477-15.875-34.812-16.648-3.2891-0.066406-5.9375-2.7148-6-6z"/>
  <path d="m572.88 1029.7h395.28c0.91016-14.547 6.8164-28.332 16.723-39.023 9.9062-10.695 23.203-17.637 37.637-19.656v-163.92c-14.434-2.0195-27.73-8.9609-37.637-19.656-9.9062-10.691-15.812-24.477-16.723-39.023h-395.28c-0.91016 14.547-6.8164 28.332-16.723 39.023-9.9062 10.695-23.199 17.637-37.637 19.656v163.92c14.438 2.0195 27.73 8.9609 37.637 19.656 9.9062 10.691 15.812 24.477 16.723 39.023zm197.64-264c32.68 0 64.02 12.98 87.129 36.082 23.113 23.105 36.102 54.441 36.113 87.121 0.007812 32.676-12.961 64.02-36.055 87.141-23.098 23.117-54.43 36.117-87.105 36.137-32.68 0.023437-64.027-12.938-87.156-36.023-23.125-23.09-36.133-54.418-36.164-87.098 0.0625-32.664 13.066-63.973 36.164-87.07 23.098-23.102 54.41-36.105 87.074-36.168z"/>
  <path d="m770.52 1000.3c29.504 0 57.797-11.719 78.66-32.582 20.859-20.859 32.582-49.156 32.582-78.66 0-29.5-11.723-57.797-32.582-78.656-20.863-20.863-49.156-32.582-78.66-32.582-29.504 0-57.797 11.719-78.656 32.582-20.863 20.859-32.582 49.156-32.582 78.656 0.03125 29.496 11.762 57.77 32.617 78.625 20.852 20.855 49.129 32.586 78.621 32.617zm-56.039-60 14.398-16.32c1.1406-1.375 2.8359-2.1719 4.6211-2.1719s3.4805 0.79688 4.6211 2.1719c7.5391 10.117 19.418 16.078 32.039 16.078 6.4727 0.49609 12.938-1.0586 18.48-4.4375 3.6172-3.293 5.4844-8.0898 5.0391-12.961 0.26172-3.1133-0.58984-6.2148-2.3984-8.7578-2.1562-2.207-4.8398-3.8203-7.8008-4.6836-4.3555-1.4297-8.8086-2.5508-13.32-3.3594-5.4414-1.1211-10.84-2.3203-16.199-3.6016v0.003906c-5.8672-1.3906-11.488-3.6562-16.68-6.7227-5.5664-3.4414-10.09-8.3359-13.082-14.16-4.3945-10.27-5.8398-21.562-4.1641-32.609 1.6758-11.047 6.4023-21.402 13.645-29.91 6.3008-5.707 14.004-9.6445 22.32-11.398v-13.082c0.0625-3.2852 2.7148-5.9336 6-6h21.359c1.5938 0 3.1172 0.63281 4.2422 1.7578s1.7578 2.6523 1.7578 4.2422v12c3.3281 0.64062 6.6133 1.4844 9.8398 2.5234 7.9453 2.6484 15.496 6.3594 22.441 11.039 1.3984 0.88672 2.3555 2.3242 2.6406 3.9609 0.24609 1.6016-0.14062 3.2344-1.082 4.5586l-12.84 17.762v-0.003907c-1.9062 2.6562-5.5898 3.2969-8.2812 1.4414-7.6133-5.6992-16.773-8.9609-26.277-9.3594-6.0039-0.51172-12.004 1.0117-17.039 4.3203-3.2461 3.1211-4.957 7.5078-4.6836 12-0.67969 3.25 0.015625 6.6406 1.9219 9.3594 2.7109 2.4414 5.957 4.2109 9.4805 5.1602 4.8008 1.3203 9.9609 2.6406 15.359 3.8398 5.3984 1.1992 10.32 2.6406 15.48 4.1992 5.4844 1.7539 10.668 4.3438 15.359 7.6797 5.2344 3.7227 9.3789 8.7773 12 14.641 3.1602 7.2148 4.6367 15.051 4.3203 22.922 0.86719 14.18-4.7344 27.992-15.238 37.559-6.957 5.5508-15.219 9.2305-24 10.68v13.32c0 1.5898-0.63281 3.1172-1.7578 4.2422s-2.6523 1.7578-4.2422 1.7578h-21.363c-3.0508-0.35938-5.3594-2.9297-5.3984-6v-12l-6-1.3203c-6.5586-1.7539-12.828-4.4648-18.602-8.0391-5.8828-3.668-11.25-8.1094-15.957-13.199-1.3008-0.97266-2.1445-2.4414-2.3242-4.0547-0.18359-1.6133 0.3125-3.2305 1.3633-4.4648z"/>
  <path d="m752.52 958.56c3.1523 0.80859 6.3633 1.3711 9.6016 1.6797 3.0273 0.36719 5.3008 2.9492 5.2773 6v12h9.3594v-12h0.003907c0.027343-3.0312 2.2734-5.582 5.2773-6 8.3672-0.63281 16.367-3.6758 23.039-8.7578 7.6602-7.4453 11.617-17.91 10.801-28.559 0.25391-6.1172-0.80859-12.215-3.1172-17.883-1.793-3.9141-4.5117-7.332-7.9219-9.9609-3.6875-2.5742-7.7305-4.5938-12-6-4.8008-1.4414-9.6016-2.7617-14.52-3.8398-4.9219-1.0781-11.039-2.6406-16.078-4.0781h-0.003907c-5.4219-1.5117-10.406-4.3125-14.52-8.1602-4.4141-4.6328-6.7188-10.887-6.3594-17.281-0.45703-8.2656 2.8516-16.297 9-21.84 7.1836-5.1289 15.91-7.6289 24.719-7.0781 9.9297 0.21484 19.625 3.0742 28.082 8.2773l5.8789-7.9219v0.003906c-4.5469-2.5664-9.3281-4.6953-14.277-6.3594-4.1328-1.3711-8.3945-2.293-12.723-2.7617-3.0586-0.25-5.4102-2.8086-5.3984-5.8789v-12h-8.6406v12c0.039062 2.9727-2.1055 5.5234-5.0391 6-9.3867 0.66797-18.066 5.2148-23.965 12.543-5.8945 7.332-8.4727 16.789-7.1172 26.098-0.30859 6.2695 0.88281 12.523 3.4805 18.238 2 3.9023 5.0312 7.1797 8.7617 9.4805 4.082 2.4648 8.543 4.2461 13.199 5.2812 5.2812 1.3203 10.559 2.5195 15.719 3.4805 4.9805 0.98438 9.9102 2.2266 14.762 3.7188 4.9766 1.5664 9.4453 4.4219 12.961 8.2812 3.8516 4.6289 5.8203 10.543 5.5195 16.559 0.55469 8.582-3.0117 16.914-9.6016 22.441-7.582 5.2422-16.727 7.7422-25.918 7.0781-13.551 0.03125-26.535-5.4258-36-15.121l-6.4805 7.9219c3 2.8281 6.3008 5.3203 9.8398 7.4414 4.457 2.9648 9.3047 5.3086 14.398 6.957z"/>
 </g>
</svg>
