<?xml version="1.0" encoding="UTF-8"?>
<svg width="1200pt" height="1200pt" version="1.1" viewBox="0 0 1200 1200" xmlns="http://www.w3.org/2000/svg">
 <g fill="#054c2e">
  <path d="m937.02 183.38-483.93-100.81c-5.2578-1.0938-10.609-1.6445-15.926-1.6445-36.562 0-68.52 26.016-75.984 61.859l-2.3984 11.543c-16.945 8.4102-30.289 22.934-37.355 40.859-25.379 12.793-42.875 39.035-42.875 69.348v274.96l-75.781 363.83c-4.2344 20.305-0.30078 41.051 11.062 58.414 8.375 12.77 20.062 22.512 33.742 28.488l-0.058593 0.69531c-1.8242 20.664 4.5 40.801 17.82 56.723 4.6328 5.5312 10.141 9.9492 15.949 13.883 8.9023 33.098 39.086 57.562 74.953 57.562h494.35c42.828 0 77.699-34.859 77.699-77.688v-371.91l9.7188-109.75 59.258-284.46c8.7227-41.949-18.301-83.168-60.242-91.895zm-658.48 857.43c-0.75781-0.79297-1.668-1.3906-2.375-2.2578-10.332-12.336-15.312-27.805-14.555-43.789 0.46875 0.12109 0.88672 0.32422 1.3555 0.43359l15.574 3.2383zm0-56.797-12.695-2.6406c-1.1172-0.23828-2.125-0.71875-3.2266-1.0078l15.926-179.63zm0-343.29-29.617 334.23c-9.2656-4.957-17.363-11.914-23.281-20.965-9.3008-14.207-12.516-31.188-9.0586-47.797l61.969-297.45v31.973zm92.52-476.13c6.9961-2.6875 14.496-4.2227 22.32-4.2227 1.8828 0 3.7812 0.085937 5.6875 0.25391l296.05 26.23-328.69-0.003907zm-16.391 9.4922-2.7109 12.996c-3.4219 0.19141-6.793 0.55078-10.078 1.1758 3.6328-5.293 7.7266-10.227 12.789-14.172zm559.48 867.31c0 35.039-28.512 63.551-63.562 63.551l-494.36 0.003907c-35.051 0-63.551-28.512-63.551-63.551v-776.86c0-35.039 28.5-63.551 63.551-63.551h494.35c35.051 0 63.562 28.512 63.562 63.551zm14.125-531.92v-244.93c0-23.242-10.32-44.074-26.555-58.32 29.555 7.6211 50.258 35.594 47.484 66.973zm55.164-237.09-34.766 166.87 14.617-164.83c3.7578-42.672-27.875-80.461-70.547-84.238l-492.42-43.633c-9-0.80469-17.699-0.011719-25.922 2.0273l0.60156-2.9141c6.0977-29.328 32.242-50.617 62.16-50.617 4.3555 0 8.7344 0.45703 13.031 1.3438l483.95 100.81c34.32 7.1406 56.422 40.871 49.297 75.18z"/>
  <path d="m618 504.66-93.996 93.996c-25.957 25.945-25.957 68.039 0 93.996 23.062 23.062 58.824 25.586 84.73 7.668-3.5273 51.973-15.66 70.211-15.66 70.211h-24.926v16.621h99.707v-16.621h-24.926s-12.133-18.238-15.66-70.211c25.906 17.914 61.68 15.395 84.742-7.668 25.957-25.957 25.957-68.051 0-93.996z"/>
  <path d="m370.84 256.74-35.496 35.496c-9.8047 9.8047-9.8047 25.703 0 35.496 8.7109 8.7109 22.211 9.6602 31.992 2.8906-1.3203 19.621-5.9023 26.508-5.9023 26.508h-9.4219v6.2773h37.656v-6.2773h-9.4219s-4.5859-6.8867-5.9023-26.508c9.7812 6.7695 23.281 5.8086 32.004-2.8906 9.793-9.8047 9.793-25.703 0-35.496z"/>
  <path d="m829.88 962.96-35.496 35.508c-9.8164 9.7812-9.8164 25.68 0 35.484 8.7109 8.7109 22.211 9.6719 31.992 2.8906-1.3203 19.633-5.9023 26.52-5.9023 26.52h-9.4219v6.2656h37.656v-6.2656h-9.4297s-4.5703-6.8867-5.8906-26.52c9.7695 6.7695 23.27 5.8086 31.992-2.8906 9.793-9.8047 9.793-25.703 0-35.484z"/>
 </g>
</svg>
