<?xml version="1.0" encoding="UTF-8"?>
<svg width="1200pt" height="1200pt" version="1.1" viewBox="0 0 1200 1200" xmlns="http://www.w3.org/2000/svg">
 <g fill="#054c2e">
  <path d="m627.52 465.17c-38.496 0-69.707 31.207-69.707 69.707s31.211 69.707 69.707 69.707c38.504 0 69.707-31.207 69.707-69.707 0.003907-38.496-31.203-69.707-69.707-69.707zm-34.086 101.8s42.277 11.121 70.203-3.9922c0.003906 0.003906-31.551 55.301-70.203 3.9922z"/>
  <path d="m867.99 125.3c-19.508-36.227-135.91-74.117-159.12-81.371l21.973-33.797-15.578-10.137-320.86 493.53c-6.5078-2.0391-13.809-1.4258-20.121 2.3477-11.75 7.0234-15.582 22.242-8.5586 33.992 0.80469 1.3477 1.6406 2.6562 2.4648 3.9844l-182.82 281.2 15.578 10.133 178.41-274.41c47.406 67.289 113.33 107.94 164.38 118.4v492.52c0 21.16 17.156 38.301 38.301 38.301 21.152 0 38.309-17.141 38.309-38.301v-279.67h14.359v279.67c0 21.16 17.156 38.301 38.301 38.301 21.152 0 38.309-17.141 38.309-38.301l0.003906-464.8c13.848 28.805 26.184 86.836 19.816 195.7-0.80078 13.664 9.6289 25.391 23.297 26.188 0.49219 0.03125 0.98047 0.042968 1.4727 0.042968 13.023 0 23.945-10.164 24.719-23.34 7.6602-130.89-8.7148-216.29-48.656-253.82-17.414-16.359-34.426-19.152-43.137-19.352-0.48438-0.027344-0.96484-0.074219-1.4531-0.074219h-119.7c-0.30859 0-0.60938 0.035157-0.91797 0.046875-37.672-1.1094-110.04-37.5-157.9-116.9l180.34-277.39c42.312-3.6992 95.738-17.492 122.85 52.215 28.918 74.355 166.27 107.4 166.27 107.4 22.719-6.1953 119.8-82.613 136.32-177.62-117.73 20.656-124.96-44.402-146.64-84.68zm-240.47 722.12-29.434-37.176 16.949-124.92c4.0195 1.5039 8.2461 2.293 12.477 2.2891h0.007812 0.019531c4.2227 0 8.4414-0.78516 12.457-2.293l16.957 124.92zm-11.773-199.83h23.547l5.8867 23.234-0.89453 1.4141c-4.8516 4.0469-10.793 6.0742-16.766 6.0781-5.9727-0.007813-11.906-2.0273-16.754-6.0664l-0.90625-1.4258z"/>
 </g>
</svg>
