<?xml version="1.0" encoding="UTF-8"?>
<svg width="1200pt" height="1200pt" version="1.1" viewBox="0 0 1200 1200" xmlns="http://www.w3.org/2000/svg">
 <g fill="#054c2e">
  <path d="m1080 888h-108v-708c0-19.094-7.5859-37.41-21.09-50.91-13.5-13.504-31.816-21.09-50.91-21.09h-555.48c-2.0898 0.023438-4.1328 0.64844-5.8789 1.8008-50.242 6.2227-96.703 29.895-131.27 66.883-34.566 36.988-55.043 84.941-57.852 135.49-2.8086 50.547 12.223 100.48 42.477 141.07l-82.441 146.76c-2.3477 4.2266-1.9336 9.4492 1.0547 13.25s7.9648 5.4375 12.625 4.1484l108.84-30.602 30.719 108.84 0.003906 0.003906c1.3164 4.6445 5.2852 8.0508 10.078 8.6406h1.4414c4.3281-0.007812 8.3203-2.3477 10.441-6.1211l63.238-113.4v435.24c0 19.094 7.5859 37.41 21.09 50.91 13.5 13.504 31.816 21.09 50.91 21.09h600c19.094 0 37.41-7.5859 50.91-21.09 13.504-13.5 21.09-31.816 21.09-50.91v-120c0-3.1836-1.2656-6.2344-3.5156-8.4844s-5.3008-3.5156-8.4844-3.5156zm-801.96-227.28-26.039-92.52c-1.4922-5.3438-6.457-8.9648-12-8.7578-1.0781-0.11719-2.1641-0.11719-3.2383 0l-92.52 26.039 63.359-112.92c36.152 38.605 85.211 62.602 137.88 67.441zm87.359-144h-6.957-10.441-3.8398c-47.988-5.3359-92.207-28.559-123.84-65.039-2.8789-3.2383-5.5195-6.6016-8.1602-10.078-2.6406-3.4805-5.2812-6.9609-7.8008-10.68-23.594-35.316-34.812-77.457-31.902-119.83 2.9102-42.371 19.789-82.582 47.992-114.34 28.203-31.758 66.141-53.266 107.87-61.156l12-1.8008c4.9219-0.60156 9.9609-0.96094 15-1.3203 5.0391-0.35938 6.7188 0 10.199 0 46.512-0.12891 91.488 16.633 126.57 47.164 35.086 30.535 57.895 72.766 64.191 118.85 6.2969 46.082-4.3516 92.883-29.961 131.71-2.3984 3.7188-5.0391 7.1992-7.8008 10.68-2.7617 3.4805-5.2812 6.8398-8.0391 10.078v0.003907c-31.664 36.508-75.93 59.73-123.96 65.039-4.6797 0-9.4805 0.71875-14.281 0.96094-2.5195 0-4.6797 0.35937-6.8398 0.35937zm220.68 68.641-92.52-26.039c-6.3594-1.7695-12.953 1.9297-14.758 8.2812l-26.039 92.52-67.441-120.12c52.504-4.8633 101.42-28.766 137.52-67.199zm-118.08 314.64v120c0.042969 12.75-4.9922 24.996-13.992 34.031-8.9961 9.0352-21.223 14.117-33.973 14.125-12.754 0.011719-24.984-5.0547-33.996-14.078-9.0273-9.0352-14.082-21.301-14.039-34.078v-454.32l73.922 132c2.1406 3.8125 6.1875 6.1562 10.559 6.1211h1.3203c4.8359-0.54688 8.8672-3.957 10.199-8.6406l30.602-108.84 108.84 30.602c4.6719 1.3438 9.6992-0.26953 12.719-4.082 2.8203-3.707 3.2422-8.7148 1.0781-12.84l-81.957-146.76c25.055-33.719 39.73-74.016 42.234-115.95 2.5039-41.938-7.2773-83.691-28.141-120.15-20.867-36.465-51.91-66.051-89.336-85.137h435.96c12.73 0 24.938 5.0586 33.941 14.059 9 9.0039 14.059 21.211 14.059 33.941v708h-468c-6.6289 0-12 5.3711-12 12zm600 120c0 12.73-5.0586 24.938-14.059 33.941-9.0039 9-21.211 14.059-33.941 14.059h-546.36c2.4102-2.8672 4.6523-5.875 6.7188-9l0.96094-1.5586c1.9414-3.2656 3.625-6.6758 5.0391-10.203v-1.4414 0.003906c1.4258-3.7031 2.5508-7.5156 3.3594-11.402v-1.0781c1.1602-4.3633 1.9258-8.8203 2.2812-13.32v-108h576z"/>
  <path d="m384 470.88c5.2539-0.63672 10.465-1.5977 15.602-2.8789 5.6797-1.4414 11.199-3.1211 16.559-5.0391 28.543-10.508 53.172-29.527 70.559-54.48 2.5195-3.8398 4.9219-7.6797 7.1992-12h0.003906c2.3789-4.043 4.543-8.207 6.4766-12.48 19.746-44.52 16.18-95.926-9.5234-137.29-25.703-41.367-70.215-67.332-118.88-69.348h-6.3594-5.6406c-4.0781 0-8.0391 0-12 0.96094-46.445 5.3984-87.566 32.535-110.79 73.117-23.227 40.578-25.797 89.781-6.9258 132.56 1.918 4.4375 4.082 8.7617 6.4805 12.961 2.2812 3.9609 4.6797 7.8008 7.3203 12h-0.003906c17.348 24.945 41.938 43.961 70.441 54.48 5.3594 1.9219 10.879 3.6016 16.559 5.0391 5.0625 1.2305 10.191 2.1523 15.363 2.7578h1.5586c3.9609 0 7.9219 0.71875 12 0.83984h12c4.1992-0.35938 8.2812-0.59766 12-1.1992zm-24-22.922v0.003907c-4.0195-0.11719-8.0273-0.47656-12-1.082-5.7617-0.76953-11.457-1.9727-17.039-3.5977-5.9805-1.6953-11.801-3.9062-17.402-6.6016-7.2305-3.2891-14.105-7.3086-20.52-12-14.812-10.484-27.109-24.137-36-39.961-2.4297-4.2422-4.5547-8.6523-6.3594-13.199-2.043-5.0469-3.7656-10.215-5.1602-15.48-9.1445-34.164-3.1445-70.609 16.473-100.04 19.617-29.43 50.953-48.988 86.008-53.684 3.9609 0 7.9219-0.83984 12-1.0781h12v-0.003907c37.137 1.8203 71.461 20.34 93.371 50.383 21.906 30.043 29.051 68.383 19.43 104.3-1.1953 5.4727-2.8008 10.848-4.8008 16.078-1.8047 4.5469-3.9297 8.957-6.3594 13.199-8.8906 15.824-21.188 29.477-36 39.961-6.3867 4.6641-13.223 8.6836-20.402 12-5.6406 2.6953-11.5 4.9023-17.52 6.6016-9.0195 2.6641-18.324 4.2344-27.719 4.6797h-6.6016z"/>
  <path d="m906.48 423.84c3.1836 0 6.2344-1.2656 8.4844-3.5156s3.5156-5.3008 3.5156-8.4844v-204c0-3.1836-1.2656-6.2344-3.5156-8.4844s-5.3008-3.5156-8.4844-3.5156h-276c-6.6289 0-12 5.3711-12 12v204c0 3.1836 1.2656 6.2344 3.5156 8.4844s5.3008 3.5156 8.4844 3.5156zm-264-204h252v180h-252z"/>
  <path d="m671.16 536.16c-6.6289 0-12 5.3711-12 12s5.3711 12 12 12h228.84c6.6289 0 12-5.3711 12-12s-5.3711-12-12-12z"/>
  <path d="m540 697.68h360c6.6289 0 12-5.3711 12-12 0-6.6289-5.3711-12-12-12h-360c-6.6289 0-12 5.3711-12 12 0 6.6289 5.3711 12 12 12z"/>
  <path d="m540 835.32h360c6.6289 0 12-5.3711 12-12 0-6.6289-5.3711-12-12-12h-360c-6.6289 0-12 5.3711-12 12 0 6.6289 5.3711 12 12 12z"/>
 </g>
</svg>
