<?xml version="1.0" encoding="UTF-8"?>
<svg width="1200pt" height="1200pt" version="1.1" viewBox="0 0 1200 1200" xmlns="http://www.w3.org/2000/svg">
 <g fill="#054c2e">
  <path d="m1084 408.49h-550.59c-43.289 0-78.469 35.203-78.469 78.469v560.06c0 43.289 35.18 78.516 78.469 78.516h550.59c43.266 0 78.516-35.227 78.516-78.516v-560.06c0-43.266-35.25-78.469-78.516-78.469z"/>
  <path d="m391.2 909.56h-59.344c-17.578 0-32.414-10.523-32.414-23.016v-578.74c0-12.445 14.836-23.016 32.414-23.016h521.93c31.805 0 57.633 19.688 57.633 43.875v23.859c0 11.953 9.7266 21.656 21.68 21.656s21.703-9.7031 21.703-21.656v-23.859c0-48.094-45.352-87.188-101.02-87.188h-521.93c-41.766 0-75.75 29.742-75.75 66.328v578.74c0 36.609 33.984 66.398 75.75 66.398h59.344c11.953 0 21.656-9.7266 21.656-21.68s-9.7031-21.703-21.656-21.703z"/>
  <path d="m172.57 742.52h-59.344c-17.578 0-32.414-10.523-32.414-23.016v-578.7c0-12.469 14.836-23.016 32.414-23.016h521.95c31.781 0 57.609 19.641 57.609 43.828v23.859c0 11.953 9.7266 21.68 21.68 21.68s21.703-9.7266 21.703-21.68v-23.859c0-48.07-45.305-87.164-100.99-87.164h-521.95c-41.789 0-75.75 29.766-75.75 66.328v578.72c0 36.609 33.961 66.398 75.75 66.398h59.344c11.953 0 21.656-9.7266 21.656-21.68 0-11.977-9.7031-21.703-21.656-21.703z"/>
 </g>
</svg>
