<?xml version="1.0" encoding="UTF-8"?>
<svg width="1200pt" height="1200pt" version="1.1" viewBox="0 0 1200 1200" xmlns="http://www.w3.org/2000/svg">
 <g fill="#054c2e" fill-rule="evenodd">
  <path d="m757.19 805.71c-3.0469 0-6.1523-0.058593-9.2578-0.23438-43.305-2.4609-83.148-21.801-112.16-54.438-28.594-32.172-42.895-73.656-40.316-116.73 2.5781-43.07 21.738-82.621 53.91-111.51l0.058594-0.058594c32.465-28.535 74.066-42.836 117.14-40.258 43.07 2.5781 82.504 21.738 111.1 53.969 28.656 32.582 43.012 74.184 40.492 117.14-2.5195 43.129-21.738 82.562-54.203 111.16-29.594 26.543-67.211 40.961-106.77 40.961zm-95.281-268.96c-58.715 52.68-64.164 143.21-12.129 201.81 25.668 28.887 60.941 46 99.207 48.168 37.855 2.168 74.301-10.664 102.61-36.039l0.058594-0.058594c28.656-25.195 45.648-60.062 47.875-98.152 2.2266-38.031-10.488-74.828-35.863-103.66-52.035-58.715-142.57-64.105-201.75-12.07z"/>
  <path d="m757.13 773.71c-35.98 0-71.723-14.824-97.332-43.832-47.523-53.852-42.66-136 10.781-183.18 25.957-22.91 59.359-34.34 93.992-32.23 34.633 2.168 66.508 17.578 89.711 43.539 47.406 53.09 42.309 135.24-11.309 183.18 0 0-0.058593 0-0.058593 0.058594-24.613 21.738-55.258 32.465-85.789 32.465zm-0.64453-240.6c-26.195 0-52.445 9.082-73.48 27.66-45.707 40.316-49.809 110.63-9.1406 156.69 40.492 45.883 110.75 50.219 156.69 9.7266 45.883-41.078 50.277-111.34 9.7852-156.69-22.148-24.73-52.973-37.387-83.852-37.387z"/>
  <path d="m826.28 830.03c-12.246 0-24.375-4.9219-32.875-14.648l-14.062-15.82c-3.457-3.8672-3.1055-9.7852 0.76172-13.242 3.8672-3.457 9.7852-3.1055 13.242 0.76172l14.062 15.82 0.058594 0.058593c8.7891 10.078 25.254 10.957 36.039 1.9922l63.109-56.137c10.137-9.3164 11.133-25.84 2.168-36.098l-14.062-15.762c-3.457-3.8672-3.1055-9.7852 0.76172-13.242 3.8672-3.457 9.7852-3.1055 13.242 0.76172l14.062 15.82 0.058594 0.058593c15.762 18.047 14.121 46-3.6328 62.289-0.058594 0.058594-0.058594 0.058594-0.11719 0.11719l-63.285 56.254c-0.058594 0.058593-0.11719 0.11719-0.17578 0.17578-8.4961 7.3242-18.984 10.84-29.359 10.84z"/>
  <path d="m994.1 967.38c-1.1719 0-2.3438-0.058594-3.5156-0.11719-14.883-0.9375-28.539-7.6172-38.383-18.867l-113.09-127.74c-3.457-3.8672-3.0469-9.7852 0.82031-13.242 3.8672-3.457 9.7852-3.0469 13.242 0.82031l113.09 127.74c6.5625 7.5 15.645 11.895 25.492 12.539 9.9023 0.58594 19.453-2.6953 26.957-9.2578 7.4414-6.5625 11.895-15.703 12.48-25.781 0.58594-10.078-2.6953-19.746-9.2578-27.25l-113.09-127.74c-3.457-3.8672-3.0469-9.7852 0.82031-13.242 3.8672-3.457 9.7852-3.0469 13.242 0.82031l113.09 127.74c9.9023 11.25 14.824 25.727 13.887 40.785-0.9375 15.059-7.6172 28.828-18.867 38.676-10.312 9.1992-23.32 14.121-36.918 14.121z"/>
  <path d="m934.62 924.07h-0.52734c-2.4609-0.11719-4.8047-1.2891-6.4453-3.1055l-33.402-37.504c-1.6406-1.875-2.5195-4.3359-2.3438-6.7969 0.17578-2.4609 1.2891-4.8047 3.1641-6.4453l70.316-62.113c1.875-1.6406 4.3359-2.5195 6.7969-2.3438 2.4609 0.17578 4.8047 1.2891 6.4453 3.1641l32.816 37.504c3.3984 3.8672 3.0469 9.7266-0.82031 13.184l-69.73 62.113c-1.7578 1.5234-3.9844 2.3438-6.2695 2.3438zm-20.156-46.059 20.918 23.496 55.785-49.691-20.508-23.441-56.195 49.633z"/>
  <path d="m753.56 953.96h-409.6c-17.578 0-34.164-6.9727-46.703-19.629-12.598-12.656-19.512-29.414-19.512-47.172v-517.42c0-17.754 6.9141-34.516 19.512-47.172 12.539-12.656 29.121-19.629 46.703-19.629h409.6c36.859 0 66.801 29.941 66.801 66.801v131.85c0 5.1562-4.2188 9.375-9.375 9.375s-9.375-4.2188-9.375-9.375v-131.85c0-26.484-21.562-48.051-48.051-48.051h-409.6c-26.191 0-47.465 21.562-47.465 48.051v517.42c0 26.484 21.273 48.051 47.465 48.051h409.6c26.488 0 48.051-21.562 48.051-48.051v-69.73c0-5.1562 4.2188-9.375 9.375-9.375s9.375 4.2188 9.375 9.375v69.73c0 36.859-29.945 66.801-66.801 66.801z"/>
  <path d="m653.94 540.85h-135.95c-5.1562 0-9.375-4.2188-9.375-9.375v-125.98c0-5.1562 4.2188-9.375 9.375-9.375h242.01c5.1562 0 9.375 4.2188 9.375 9.375v86.141c0 5.1562-4.2188 9.375-9.375 9.375s-9.375-4.2188-9.375-9.375v-76.762h-223.26v107.23h122.88c3.6914-2.6367 8.7891-2.2852 12.07 0.99609 3.6328 3.6328 3.6328 9.6094 0 13.242l-1.7578 1.7578c-1.7578 1.7578-4.1602 2.7539-6.6211 2.7539z"/>
  <path d="m466.43 414.86h-128.91c-5.1562 0-9.375-4.2188-9.375-9.375s4.2188-9.375 9.375-9.375h128.91c5.1562 0 9.375 4.2188 9.375 9.375s-4.2188 9.375-9.375 9.375z"/>
  <path d="m466.43 478.15h-128.91c-5.1562 0-9.375-4.2188-9.375-9.375s4.2188-9.375 9.375-9.375h128.91c5.1562 0 9.375 4.2188 9.375 9.375s-4.2188 9.375-9.375 9.375z"/>
  <path d="m466.43 540.85h-128.91c-5.1562 0-9.375-4.2188-9.375-9.375s4.2188-9.375 9.375-9.375h128.91c5.1562 0 9.375 4.2188 9.375 9.375s-4.2188 9.375-9.375 9.375z"/>
  <path d="m760 884.82h-422.49c-5.1562 0-9.375-4.2188-9.375-9.375v-104.3c0-5.1562 4.2188-9.375 9.375-9.375h335.77c5.1562 0 9.375 4.2188 9.375 9.375s-4.2188 9.375-9.375 9.375h-326.39v85.555h403.74v-69.73c0-5.1562 4.2188-9.375 9.375-9.375s9.375 4.2188 9.375 9.375v79.105c0 5.1562-4.2188 9.375-9.375 9.375z"/>
  <path d="m618.2 590.07h-281.86c-5.1562 0-9.375-4.2188-9.375-9.375s4.2188-9.375 9.375-9.375h281.86c5.1562 0 9.375 4.2188 9.375 9.375s-4.2188 9.375-9.375 9.375z"/>
  <path d="m604.72 655.11h-268.38c-5.1562 0-9.375-4.2188-9.375-9.375s4.2188-9.375 9.375-9.375h268.38c5.1562 0 9.375 4.2188 9.375 9.375s-4.2188 9.375-9.375 9.375z"/>
  <path d="m620.54 720.74h-284.2c-5.1562 0-9.375-4.2188-9.375-9.375s4.2188-9.375 9.375-9.375h284.2c5.1562 0 9.375 4.2188 9.375 9.375s-4.2188 9.375-9.375 9.375z"/>
  <path d="m287.12 883.06h-70.902c-36.508 0-66.215-29.711-66.215-66.215v-517.42c0-17.754 6.9141-34.516 19.512-47.172 12.539-12.656 29.125-19.629 46.703-19.629h410.19c17.578 0 34.164 6.9727 46.703 19.629 12.598 12.656 19.512 29.418 19.512 47.172v12.891c0 5.1562-4.2188 9.375-9.375 9.375s-9.375-4.2188-9.375-9.375v-12.891c0-26.484-21.273-48.051-47.465-48.051h-410.19c-26.195 0-47.465 21.562-47.465 48.051v517.42c0 26.191 21.27 47.465 47.465 47.465h70.902c5.1562 0 9.375 4.2188 9.375 9.375s-4.2188 9.375-9.375 9.375z"/>
  <path d="m744.77 594.76h-93.172c-5.1562 0-9.375-4.2188-9.375-9.375s4.2188-9.375 9.375-9.375h93.172c5.1562 0 9.375 4.2188 9.375 9.375s-4.2188 9.375-9.375 9.375z"/>
  <path d="m744.77 653.35h-108.41c-5.1562 0-9.375-4.2188-9.375-9.375s4.2188-9.375 9.375-9.375h108.41c5.1562 0 9.375 4.2188 9.375 9.375s-4.2188 9.375-9.375 9.375z"/>
  <path d="m744.77 712.54h-92.586c-5.1562 0-9.375-4.2188-9.375-9.375s4.2188-9.375 9.375-9.375h92.586c5.1562 0 9.375 4.2188 9.375 9.375s-4.2188 9.375-9.375 9.375z"/>
 </g>
</svg>
