<?xml version="1.0" encoding="UTF-8"?>
<svg width="1200pt" height="1200pt" version="1.1" viewBox="0 0 1200 1200" xmlns="http://www.w3.org/2000/svg">
 <g fill="#054c2e">
  <path d="m135.12 302.4h180v36.719h-180z"/>
  <path d="m135.12 424.8h321.72v36.719h-321.72z"/>
  <path d="m554.76 341.4h-36.723v101.76c0.042969 6.3594 3.3516 12.254 8.7617 15.602 5.4102 3.3945 12.215 3.668 17.879 0.71875l242.04-122.4-16.559-32.762-216 108.96z"/>
  <path d="m135.12 602.28h180v36.719h-180z"/>
  <path d="m135.12 724.68h321.72v36.719h-321.72z"/>
  <path d="m554.76 713.16v-72h-36.723v101.76c0.042969 6.3594 3.3516 12.254 8.7617 15.598 5.4102 3.3945 12.215 3.668 17.879 0.71875l242.04-122.4-16.559-32.762z"/>
  <path d="m135.12 902.16h180v36.719h-180z"/>
  <path d="m135.12 1024.6h321.72v36.719h-321.72z"/>
  <path d="m554.76 1013v-72h-36.723v101.76c0.042969 6.3594 3.3516 12.254 8.7617 15.598 5.4102 3.3984 12.215 3.6719 17.879 0.72266l242.04-122.4-16.559-32.762z"/>
  <path d="m859.08 41.762h-804.72c-4.8477 0-9.5 1.918-12.941 5.332-3.4375 3.418-5.3867 8.0586-5.418 12.906v1080c0 4.8711 1.9336 9.5391 5.3789 12.984 3.4414 3.4414 8.1133 5.375 12.98 5.375h804.72c4.8828 0.03125 9.5703-1.8906 13.02-5.3398 3.4492-3.4531 5.375-8.1406 5.3438-13.02v-1080c0-4.8594-1.9414-9.5156-5.3867-12.941-3.4453-3.4219-8.1172-5.332-12.977-5.2969zm-600 36.719h396v115.32h-396zm581.64 1043h-768v-1043h149.52v133.68c0.03125 4.8594 1.9766 9.5117 5.4141 12.949 3.4375 3.4336 8.0898 5.3789 12.949 5.4102h432c4.8672 0 9.5391-1.9336 12.98-5.3789 3.4453-3.4414 5.3789-8.1094 5.3789-12.98v-133.68h149.76z"/>
  <path d="m1164 855.48v-8.7617h-72v-617.4c0.042969-2.2578-0.36719-4.5-1.1992-6.6016l-61.562-165.12c-1.2656-3.4375-3.5312-6.4141-6.5039-8.5547-2.9727-2.1367-6.5156-3.3398-10.176-3.4453-3.6133-0.0625-7.1719 0.92578-10.238 2.8398-3.0664 1.918-5.5117 4.6836-7.0391 7.957l-74.52 165.24c-1.1094 2.4062-1.6836 5.0273-1.6836 7.6797v906.6c-0.03125 4.8789 1.8945 9.5664 5.3438 13.016s8.1406 5.375 13.02 5.3438h136.68c4.7852-0.125 9.332-2.1172 12.672-5.5469 3.3398-3.4297 5.207-8.0273 5.207-12.812v-36h53.16c5.0664 0.16797 9.9805-1.7773 13.555-5.375 3.5742-3.5977 5.4883-8.5195 5.2852-13.586zm-153.48-743.4 37.078 98.879-81.598 0.003907zm45.48 1005.5h-100.08v-85.559h100.08zm0-122.4h-100.08v-747.48h100.08zm36 67.441v-179.16h34.801v179.16z"/>
 </g>
</svg>
