<?xml version="1.0" encoding="UTF-8"?>
<svg width="1200pt" height="1200pt" version="1.1" viewBox="0 0 1200 1200" xmlns="http://www.w3.org/2000/svg">
 <g fill="#054c2e">
  <path d="m878.85 702.82v34.727c-32.438-23.812-99.602-67.836-145.24-62.023-29.887 3.75-58.801 25.727-86.773 46.949-27.336 20.738-55.5 42.148-78.602 42.148h-158.44c-5.2891 0-10.164 0.5625-14.852 1.3516-25.5-14.926-111.56-65.102-139.01-76.914-21.977-9.4492-46.727-4.1992-61.613 12.977-13.539 15.824-20.438 45.188 1.4609 80.551 31.648 51.039 127.88 206.44 220.39 235.05 15.148 4.6875 118.35 35.512 203.85 35.512 30.188 0 58.238-3.8633 79.312-14.062 85.539-41.477 159.6-48.113 179.51-49.164v29.812h139.54v-316.91zm0 84.152v162.34c-21.148 0.82422-102.11 7.1992-197.25 53.289-45.039 21.898-161.66 4.6133-253.5-23.699-51.789-16.012-118.35-89.25-198.11-218.06-10.199-16.316-9-27.676-4.9883-32.363 3.375-3.8984 9.1484-4.6875 14.926-2.2109 18.898 8.1016 73.762 39.301 114.71 63.074-9.2266 11.625-14.211 25.875-14.211 40.199 0 18.523 7.8359 36.488 21.523 49.273 10.387 9.7891 29.363 21.414 60.188 21.414h186.19c11.137 0 20.211-9.0391 20.211-20.25 0-11.211-9.0742-20.25-20.211-20.25h-186.19c-13.988 0-25.199-3.6367-32.512-10.461-5.625-5.3242-8.6992-12.262-8.6992-19.727 0-11.289 7.5391-24.414 28.875-24.414h158.44c36.711 0 70.461-25.613 103.05-50.363 23.738-18.039 48.262-36.711 67.387-39.113 27.977-3.6016 99.676 40.988 140.18 70.988z"/>
  <path d="m307.39 413.7 30.523-47.773 30.523 47.773h67.762l30.523-47.773 30.523 47.773h77.398c30.336 60.227 92.512 101.66 164.51 101.66 101.81 0 184.27-82.5 184.27-184.24 0-101.77-82.461-184.27-184.27-184.27-72 0-134.18 41.438-164.51 101.66l-271.94-0.003906-99.449 82.613 99.449 82.574zm454.35-153.26c39.039 0 70.688 31.648 70.688 70.688 0 39-31.648 70.613-70.688 70.613-38.961 0-70.613-31.613-70.613-70.613 0-39.039 31.613-70.688 70.613-70.688z"/>
 </g>
</svg>
