<?xml version="1.0" encoding="UTF-8"?>
<svg width="1200pt" height="1200pt" version="1.1" viewBox="0 0 1200 1200" xmlns="http://www.w3.org/2000/svg">
 <g fill="#054c2e">
  <path d="m600 1137.5c70.605 0.16406 140.54-13.672 205.77-40.707 65.223-27.035 124.44-66.73 174.23-116.79 2.3516-2.3984 4.3008-5.25 6.6484-7.6992v51.852-0.003906c0 13.398 7.1484 25.777 18.75 32.477 11.605 6.6992 25.898 6.6992 37.5 0 11.605-6.6992 18.75-19.078 18.75-32.477v-141.3c0-9.9453-3.9492-19.484-10.98-26.52-7.0352-7.0312-16.574-10.98-26.52-10.98h-141.35c-13.398 0-25.777 7.1445-32.477 18.75-6.6992 11.602-6.6992 25.895 0 37.5 6.6992 11.602 19.078 18.75 32.477 18.75h50c-2.1016 2.1016-3.75 4.6016-5.8516 6.6992-86.742 86.695-204.37 135.39-327.01 135.38-122.64-0.015625-240.25-48.738-326.97-135.46s-135.45-204.33-135.47-326.97c0-13.398-7.1484-25.777-18.75-32.477-11.602-6.6992-25.898-6.6992-37.5 0-11.602 6.6992-18.75 19.078-18.75 32.477-0.015625 94.355 24.809 187.05 71.98 268.77 47.172 81.719 115.03 149.58 196.75 196.75 81.715 47.172 174.41 71.996 268.77 71.98z"/>
  <path d="m175.75 354.65h141.4c13.398 0 25.777-7.1445 32.477-18.75 6.6992-11.602 6.6992-25.895 0-37.5-6.6992-11.602-19.078-18.75-32.477-18.75h-50c2.0508-2.1016 3.75-4.6016 5.8008-6.6992 64.684-64.688 147.09-108.74 236.81-126.59 89.723-17.848 182.72-8.6914 267.23 26.316 84.512 35.008 156.75 94.293 207.57 170.36s77.941 165.49 77.938 256.96c0 13.398 7.1484 25.777 18.75 32.477 11.602 6.6992 25.898 6.6992 37.5 0 11.602-6.6992 18.75-19.078 18.75-32.477-0.035156-142.53-56.68-279.2-157.47-379.97-100.79-100.77-237.48-157.38-380.01-157.39-142.53-0.007813-279.22 56.598-380.02 157.36-2.3516 2.3984-4.3008 5.3008-6.6484 7.6992v-51.949c0-13.398-7.1484-25.777-18.75-32.477-11.605-6.6992-25.898-6.6992-37.5 0-11.605 6.6992-18.75 19.078-18.75 32.477v141.4c0 9.9297 3.9375 19.453 10.945 26.484 7.0117 7.0273 16.523 10.992 26.453 11.016z"/>
  <path d="m600 262.5c-89.512 0-175.36 35.559-238.65 98.852-63.293 63.293-98.852 149.14-98.852 238.65s35.559 175.36 98.852 238.65c63.293 63.293 149.14 98.852 238.65 98.852s175.36-35.559 238.65-98.852c63.293-63.293 98.852-149.14 98.852-238.65-0.10547-89.477-35.699-175.26-98.969-238.53s-149.05-98.863-238.53-98.969zm125 375h-125c-9.9453 0-19.484-3.9492-26.516-10.984-7.0352-7.0312-10.984-16.57-10.984-26.516v-150c0-13.398 7.1484-25.777 18.75-32.477 11.602-6.6992 25.898-6.6992 37.5 0 11.602 6.6992 18.75 19.078 18.75 32.477v112.5h87.5c13.398 0 25.777 7.1484 32.477 18.75 6.6992 11.602 6.6992 25.898 0 37.5-6.6992 11.602-19.078 18.75-32.477 18.75z"/>
 </g>
</svg>
