<?xml version="1.0" encoding="UTF-8"?>
<svg width="1200pt" height="1200pt" version="1.1" viewBox="0 0 1200 1200" xmlns="http://www.w3.org/2000/svg">
 <path d="m426.99 831.68c-4.7852-11.07 11.039-15.824 11.039-15.824s42.77-3.168 72.832 45.152c0 0 1.1211-0.16016 3.0391-0.20703l0.70312-1.6328c-0.44922-0.03125-0.70312-0.046875-0.70312-0.046875 0.25781 0 0.46484 0.015625 0.70312 0.015625l2.9766-6.8789s3.5859-18.238 3.5859-25.742-2.3672-15.023-2.3672-15.023l-25.727-88.688s-5.1367-15.039 8.3203-20.191c13.457-5.1523 19.008 7.1211 19.008 7.1211s28.895 80.367 32.047 90.289c3.1836 9.8711 10.305-1.6016 10.305-1.6016l-1.5664-102.95s-1.9844-17.023 16.223-18.625c18.223-1.5859 16.641 24.961 16.641 24.961s1.5859 88.672 1.9844 98.992c0.38281 10.32 7.1211 1.1836 7.1211 1.1836s23.344-82.336 25.742-91.055c2.3516-8.7031 6.3359-18.207 19.406-16.238 13.039 1.9844 7.8867 30.098 7.8867 30.098s-20.191 83.922-21.359 90.273c-1.1992 6.3359 3.1523 5.1523 3.1523 5.1523s39.602-61.762 42.754-66.129c3.1992-4.3516 9.5352-13.855 21.793-7.1211s-3.9531 33.664-3.9531 33.664-30.098 52.656-32.879 57.793c-2.7539 5.1367-2.3516 8.3203-2.3516 8.3203l-1.9844 40.398c-7.8867 54.625-34.047 69.68-34.047 69.68l5.8086 163.07c-10.656 0.65625-21.375 1.0078-32.191 1.0078-22.734 0-45.105-1.5039-67.07-4.3359l4.7852-164.53s-7.1367-4.7539-21.375-13.488c-14.238-8.7031-27.711-30.062-30.879-37.199-3.168-7.1211-10.305-26.93-30.895-46.719-20.605-19.754-23.773-11.848-28.508-22.953zm421.89-454.51 136.37-128.67c-21.105-23.07-44.258-44.223-69.168-63.199l-121.94 130.93s-26.863-7.2461-67.664 23.246l-27.633 25.055s-1.8086 2.3203-6.9766 3.8867c-5.1523 1.5352-59.121 16.258-59.121 16.258s-28.129 6.9766-24.512 19.375c3.6172 12.367 13.938 10.32 18.863 9.5508 4.8945-0.76953 71.008-15.246 71.008-15.246s3.6328 2.0781-1.2812 5.4258c-4.9219 3.3906-72.824 44.957-72.824 44.957s-21.68 14.961-14.465 24.77c7.2305 9.8086 16.016 6.207 23.23 2.0625 7.2461-4.1289 76.16-42.609 76.16-42.609s10.352-1.5508 3.8867 5.4258c-6.4492 6.9766-63.266 65.84-63.266 65.84s-18.336 16.273-5.4258 27.121c12.93 10.832 22.719-1.5664 22.719-1.5664l66.113-68.16s12.129-2.8164 7.7617 5.6797c-4.3984 8.5273-37.969 79.777-37.969 79.777s-4.3828 11.633 7.7422 17.039c12.145 5.4062 18.574-7.7422 18.574-7.7422l41.055-74.625s3.3594-6.4648 8.2734-11.344c4.9102-4.9102 19.105-14.465 19.105-14.465l6.4336-2.543c0.14453 0.16016 0.30469 0.32031 0.44922 0.46484 0 0-0.16016-0.16016-0.43359-0.49609l1.5195-0.59375c1.2969 1.2148 2.1133 1.8398 2.1133 1.8398-11.902 51.121 18.047 76.945 18.047 76.945s13.441 7.2148 17.551-3.1211c4.1289-10.32-3.0898-7.2305-3.6328-33.551-0.51172-26.336 7.7422-43.902 10.336-50.609 2.6094-6.7188 7.7422-29.441 4.1445-44.398-3.6094-14.945-5.1445-22.707-5.1445-22.707zm-111.55-59.23c-22.352-21.52-30.129-43.039-33.566-50.785-3.457-7.7617-18.098-30.992-33.586-40.434-15.473-9.5039-23.215-14.656-23.215-14.656l3.7773-130.59c-16.383-1.5664-33.023-2.3828-49.84-2.3828-18.512 0-36.785 0.99219-54.785 2.8633l4.4492 124.93s-28.414 16.352-37.008 75.742l-2.1445 43.902s0.41406 3.457-2.5586 9.0547c-3.0273 5.5898-35.73 62.82-35.73 62.82s-17.633 29.266-4.3047 36.574c13.328 7.3125 20.207-3.0078 23.68-7.7422 3.4414-4.7344 46.48-71.871 46.48-71.871s4.7539-1.2969 3.4414 5.6016c-1.2969 6.8945-23.23 98.129-23.23 98.129s-5.6016 30.543 8.5938 32.703c14.191 2.1602 18.512-8.1758 21.09-17.648 2.5938-9.4727 27.969-98.992 27.969-98.992s7.3281-9.9023 7.7422 1.2969c0.41406 11.199 2.1445 107.6 2.1445 107.6s-1.7266 28.848 18.078 27.121c19.793-1.7266 17.648-20.238 17.648-20.238l-1.7109-111.89s7.7266-12.465 11.184-1.7266c3.457 10.77 34.863 98.129 34.863 98.129s6.0312 13.344 20.656 7.7422c14.625-5.6016 9.0391-21.953 9.0391-21.953l-27.984-96.383s-2.5742-8.1914-2.5742-16.336c0-8.1914 3.8867-27.984 3.8867-27.984l3.2305-7.4727h0.76953s-0.27344 0-0.75391-0.03125l0.75391-1.7617c2.1133-0.0625 3.2969-0.20703 3.2969-0.20703 32.688 52.527 79.168 49.055 79.168 49.055s17.215-5.168 12.016-17.199c-5.1562-12.07-8.582-3.4766-30.965-24.98zm-223.2 172.86-67.266-36.992s-5.8242-3.0234-10.238-7.4414c-4.4336-4.4336-13.023-17.23-13.023-17.23l-2.3047-5.793c0.14453-0.14453 0.27344-0.27344 0.41406-0.41406 0 0-0.16016 0.14453-0.43359 0.38281l-0.52734-1.3594c1.0898-1.168 1.6641-1.9023 1.6641-1.9023 46.078 10.719 69.344-16.273 69.344-16.273s6.5117-12.113-2.8164-15.809c-9.3125-3.7266-6.5117 2.7852-30.258 3.2656-23.727 0.44922-39.551-6.9922-45.617-9.3125-6.0625-2.3359-26.543-6.9922-40.016-3.7109-13.504 3.2305-20.496 4.6406-20.496 4.6406l-131.43-139.31c-19.664 20.945-37.617 43.488-53.633 67.441l130.14 121.2s-6.5273 24.223 20.961 60.977l22.574 24.91s2.0977 1.6328 3.5039 6.2734c1.375 4.6562 14.656 53.297 14.656 53.297s6.2891 25.359 17.457 22.113c11.152-3.2656 9.2969-12.559 8.625-16.992-0.70312-4.4336-13.727-64-13.727-64s1.8711-3.2656 4.8945 1.1523c3.0234 4.4141 40.496 65.633 40.496 65.633s13.488 19.551 22.336 13.039c8.8477-6.5273 5.5859-14.434 1.8555-20.945-3.7109-6.5273-38.398-68.656-38.398-68.656s-1.3906-9.3281 4.8789-3.4883c6.2891 5.8242 59.344 57.023 59.344 57.023s14.672 16.527 24.434 4.8789c9.7773-11.648-1.4062-20.48-1.4062-20.48l-61.426-59.602s-2.543-10.93 5.1211-6.9766c7.6797 3.9688 71.902 34.207 71.902 34.207s10.48 3.9688 15.359-6.9922c4.9023-10.941-6.9531-16.75-6.9531-16.75zm538.34 369.04-84.016-78.258s8.5273-31.664-27.406-79.727l-29.52-32.574s-2.7344-2.1289-4.5938-8.1914c-1.793-6.0977-19.152-69.695-19.152-69.695s-8.207-33.152-22.832-28.895c-14.594 4.2578-12.16 16.414-11.246 22.223 0.91016 5.7773 17.953 83.68 17.953 83.68s-2.4492 4.2891-6.3984-1.5195c-3.9531-5.7773-52.945-85.824-52.945-85.824s-17.648-25.566-29.215-17.039c-11.566 8.5273-7.2969 18.863-2.3984 27.391 4.8633 8.5273 50.191 89.762 50.191 89.762s1.8242 12.207-6.3672 4.5586c-8.2383-7.6328-77.602-74.559-77.602-74.559s-19.184-21.602-31.969-6.3828c-12.801 15.215 1.8242 26.785 1.8242 26.785l80.336 77.902s3.3281 14.305-6.7031 9.1367c-10.047-5.1836-94.031-44.754-94.031-44.754s-13.695-5.168-20.098 9.1367c-6.3672 14.305 9.1211 21.902 9.1211 21.902l87.953 48.367s7.6016 3.9688 13.359 9.7109c5.793 5.793 17.039 22.543 17.039 22.543l3.0078 7.5664c-0.17578 0.19141-0.33594 0.36719-0.54297 0.55859 0 0 0.20703-0.19141 0.57422-0.51172l0.70313 1.7773c-1.4414 1.5352-2.1914 2.4805-2.1914 2.4805-60.238-14.031-90.672 21.281-90.672 21.281s-8.5273 15.824 3.6641 20.656c12.16 4.8789 8.5273-3.6328 39.566-4.2578 31.008-0.59375 51.711 9.1211 59.633 12.176 7.9375 3.0391 34.703 9.1211 52.336 4.8633 17.664-4.2383 26.801-6.0625 26.801-6.0625l93.953 99.566c23.402-26.301 44.172-55.055 61.883-85.773zm-693.6-199.17c10.145-0.36719 97.426-1.9375 97.426-1.9375s26.113 1.5508 24.559-16.367c-1.5508-17.922-18.336-15.984-18.336-15.984l-101.31 1.5664s-11.297-7.0078-1.5664-10.145c9.7422-3.1211 88.848-31.566 88.848-31.566s12.098-5.4414 7.0234-18.703c-5.0703-13.246-19.871-8.1914-19.871-8.1914l-87.297 25.344s-7.4062 2.3359-14.801 2.3359c-7.4062 0-25.328-3.5195-25.328-3.5195l-6.7852-2.9297v-0.70312s0 0.23828-0.03125 0.70312l-1.6016-0.70312c-0.046874-1.8867-0.19141-2.9766-0.19141-2.9766 47.551-29.602 44.434-71.68 44.434-71.68s-4.6875-15.586-15.586-10.879c-10.91 4.6719-3.1211 7.793-22.594 28.047-19.488 20.258-38.977 27.281-45.984 30.383-7.0234 3.1211-28.047 16.367-36.625 30.398-8.6094 14-13.266 21.039-13.266 21.039l-129.98-3.7891c0.015625 32.527 3.0547 64.336 8.7852 95.199l116.54-4.1289s14.816 25.711 68.594 33.504l39.762 1.9375s3.1211-0.36719 8.1914 2.3359c5.0547 2.7344 56.879 32.352 56.879 32.352s26.496 15.953 33.121 3.8711c6.625-12.062-2.7344-18.305-7.0078-21.441-4.2891-3.1055-65.09-42.078-65.09-42.078s-1.1523-4.3047 5.0703-3.1211 88.848 21.039 88.848 21.039 27.664 5.0547 29.617-7.7773c1.9531-12.863-7.4062-16.77-15.984-19.07-8.5742-2.3672-89.617-25.344-89.617-25.344 0 0.003906-8.9922-6.6523 1.1523-7.0195z" fill="#054c2e"/>
</svg>
