<?xml version="1.0" encoding="UTF-8"?>
<svg width="1200pt" height="1200pt" version="1.1" viewBox="0 0 1200 1200" xmlns="http://www.w3.org/2000/svg">
 <g fill="#054c2e">
  <path d="m546.93 136.88c23.828 0 43.121 19.934 43.121 44.441 0 24.52-19.293 44.387-43.121 44.387-23.801 0-43.121-19.867-43.121-44.387-0.011719-24.508 19.309-44.441 43.121-44.441zm0-72.438c-49.215 0.078125-92.922 32.441-108.25 80.332l-204.87 0.35937c-44.922 0-83.746 33.602-83.746 77.359v835.71c0 43.746 38.828 77.359 83.746 77.359h626.28c44.922 0 83.746-33.613 83.746-77.359v-126.54l-40.414 32.281v94.238c0 19.734-17.867 37.16-43.332 37.16l-626.29 0.003906c-25.414 0-43.387-17.426-43.387-37.16v-835.68c0-19.719 17.973-37.16 43.387-37.16h94.375v73.199c0 19.027 15.574 34.375 34.785 34.375h367.92c19.238 0 34.734-15.332 34.734-34.375v-73.199h94.453c25.465 0 43.332 17.441 43.332 37.16v171.04l40.414 14.027v-185.07c0-43.762-38.828-77.359-83.746-77.359l-204.95-0.35938c-15.34-47.844-59.031-80.27-108.19-80.348z" fill-rule="evenodd"/>
  <path d="m783.83 555.71c36.309 0 65.762 30.762 65.762 68.668-0.078125 22.707-10.84 43.945-28.879 56.668l19.641 83.961c1.5352 9.1719-5.2148 16.879-11.801 16.879h-89.453c-6.5352 0-13.332-7.707-11.801-16.879l19.641-83.828c-17.973-12.785-28.801-34.027-28.801-56.801-0.015625-37.91 29.371-68.668 65.691-68.668zm0-165.49-266.61 92.641v100.62c0 205.15 107 328.68 266.61 413.19 159.64-84.508 266.67-208.05 266.67-413.19v-100.62z"/>
  <path d="m274.29 462.64c-26.879 0-26.879 40.348 0 40.348h160.91c26.934 0 26.934-40.348 0-40.348z"/>
  <path d="m274.29 553.68c-26.879 0-26.879 40.359 0 40.359h160.91c26.934 0 26.934-40.359 0-40.359z"/>
  <path d="m272.35 644.72c-26.094 2.0273-24.172 40.84 1.9453 40.281h160.91c11.586 0.625 21.309-8.5469 21.309-20.133 0-11.602-9.7188-20.773-21.309-20.148h-160.91-1.9453z"/>
  <path d="m274.29 735.71c-26.879 0-26.879 40.332 0 40.332h160.91c26.934 0 26.934-40.332 0-40.332z"/>
  <path d="m272.35 826.75c-26.094 1.9453-24.172 40.773 1.9453 40.199h227.08c11.535 0.69141 21.254-8.5352 21.254-20.066 0-11.586-9.7188-20.812-21.254-20.121l-227.08 0.003907c-0.625-0.09375-1.3203-0.09375-1.9453-0.015625z"/>
  <path d="m274.29 917.65c-26.879 0-26.879 40.332 0 40.332h271.88c26.879 0 26.879-40.332 0-40.332z"/>
 </g>
</svg>
