<?xml version="1.0" encoding="UTF-8"?>
<svg width="1200pt" height="1200pt" version="1.1" viewBox="0 0 1200 1200" xmlns="http://www.w3.org/2000/svg">
 <g fill="#054c2e">
  <path d="m654.54 677.12c0-15.883-6.2383-30.242-16.211-41.121h7.7031c38.105 0 69.102-31.008 69.102-69.109 0-20.094-8.7617-38.047-22.496-50.688 31.164-6.6836 54.625-34.395 54.625-67.527 0-25.184-13.684-47.039-33.867-59.117 20.219-12.066 33.926-33.91 33.926-59.078v-5.9844c0-38.066-31.035-69.043-69.18-69.043h-158.39c-1.8477 0-2.7266-1.1797-3.0781-1.8867-0.35938-0.70312-0.80078-2.1094 0.28516-3.6055l91.082-124.94c23.594-31.945 16.934-77.16-14.883-100.83-12.578-9.2852-27.422-14.188-42.898-14.188-22.988 0-44.09 10.578-57.891 29.023-27.461 36.797-105.47 138.86-136.23 168.85-31.289 30.383-65.422 58.582-101.43 83.828l-46.879 32.812c-0.73828-17.797-15.332-32.07-33.309-32.07h-88.312c-18.449 0-33.449 15-33.449 33.449v350.89c0 18.449 15 33.449 33.449 33.449h88.309c16.125 0 29.613-11.465 32.754-26.672 26.086 2.0469 45.406 11.762 66.945 23.344 27.316 14.699 58.27 31.359 108.55 31.359h210.64c33.707-0.007813 61.133-27.434 61.133-61.145zm-466.57-0.33984c0 7.4141-6.0352 13.449-13.449 13.449h-88.309c-7.4141 0-13.449-6.0352-13.449-13.449l0.003906-350.89c0-7.4141 6.0352-13.449 13.449-13.449h88.309c7.4141 0 13.449 6.0352 13.449 13.449zm95.723 12.512c-21.965-11.82-44.699-23.895-75.723-26.109v-314.35l58.211-40.742c36.895-25.859 71.848-54.746 103.91-85.879 38.203-37.234 137.32-169.89 138.31-171.22 16.691-22.305 50.227-27.414 72.859-10.723 22.969 17.078 27.766 49.766 10.652 72.922l-91.105 124.99c-5.2344 7.168-5.9844 16.543-1.9609 24.453 4.0234 7.9102 12.031 12.824 20.91 12.824h158.39c27.117 0 49.18 22.004 49.18 49.043v5.9844c0 27.043-22.059 49.043-49.18 49.043h-63.039c-5.5273 0-10 4.4727-10 10 0 2.7773 1.1328 5.2812 2.957 7.0938 1.8125 1.8242 4.3164 2.957 7.0938 2.957h62.996c27.078 0 49.109 22.031 49.109 49.102 0 27.078-22.031 49.109-49.109 49.109h-102.89c-5.5273 0-10 4.4727-10 10s4.4727 10 10 10h70.77c27.07 0 49.102 22.031 49.102 49.102 0 27.078-22.031 49.109-49.102 49.109h-108.01c-5.5273 0-10 4.4727-10 10 0 5.5273 4.4727 10 10 10h55.383c22.684 0 41.133 18.449 41.133 41.121 0 22.684-18.449 41.133-41.133 41.133l-210.64 0.003906c-45.238 0.003906-72.609-14.727-99.074-28.961z"/>
  <path d="m1113.8 489.77h-88.309c-16.125 0-29.613 11.465-32.754 26.672-26.086-2.0469-45.402-11.762-66.934-23.344-25.027-13.465-53.391-28.723-96.816-31.047-5.4805-0.35156-10.227 3.9336-10.527 9.4531-0.29297 5.5156 3.9453 10.227 9.4531 10.527 38.965 2.0781 64.102 15.598 88.41 28.672 21.973 11.82 44.703 23.895 75.723 26.109v314.35l-58.211 40.742c-36.895 25.859-71.848 54.746-103.91 85.879-38.203 37.234-137.32 169.89-138.31 171.22-16.691 22.316-50.266 27.402-72.859 10.723-22.969-17.078-27.766-49.766-10.652-72.922l91.105-124.99c5.2344-7.168 5.9844-16.543 1.9609-24.453-4.0234-7.9102-12.031-12.824-20.91-12.824h-158.39c-27.117 0-49.18-22.004-49.18-49.043v-5.9844c0-27.043 22.059-49.043 49.18-49.043h63.039c5.5273 0 10-4.4727 10-10s-4.4727-10-10-10h-63.039c-38.145 0-69.18 30.977-69.18 69.043v5.9844c0 38.066 31.035 69.043 69.18 69.043h158.39c1.8477 0 2.7266 1.1797 3.0781 1.8867 0.35938 0.70312 0.80078 2.1094-0.28516 3.6055l-91.082 124.94c-23.594 31.945-16.934 77.16 14.883 100.83 12.566 9.293 27.41 14.195 42.887 14.195 22.988 0 44.09-10.578 57.891-29.023 27.461-36.797 105.47-138.86 136.23-168.85 31.289-30.383 65.422-58.582 101.43-83.828l46.879-32.812c0.73828 17.797 15.332 32.07 33.309 32.07h88.309c18.449 0 33.449-15 33.449-33.449v-350.89c0-18.449-15-33.449-33.445-33.449zm13.445 384.34c0 7.4141-6.0352 13.449-13.449 13.449h-88.309c-7.4141 0-13.449-6.0352-13.449-13.449l0.003906-350.89c0-7.4141 6.0352-13.449 13.449-13.449h88.309c7.4141 0 13.449 6.0352 13.449 13.449z"/>
 </g>
</svg>
