<?xml version="1.0" encoding="UTF-8"?>
<svg width="1200pt" height="1200pt" version="1.1" viewBox="0 0 1200 1200" xmlns="http://www.w3.org/2000/svg">
 <g fill="#054c2e">
  <path d="m384.38 843.75h-168.75c-5.1758 0-9.375-4.1992-9.375-9.375v-112.5c0-5.1758 4.1992-9.375 9.375-9.375s9.375 4.1992 9.375 9.375v103.12h159.38c5.1758 0 9.375 4.1992 9.375 9.375s-4.1992 9.375-9.375 9.375z"/>
  <path d="m1115.6 843.75h-487.5c-5.1758 0-9.375-4.1992-9.375-9.375s4.1992-9.375 9.375-9.375h478.12v-468.75h-459.38c-5.1758 0-9.375-4.1992-9.375-9.375s4.1992-9.375 9.375-9.375h468.75c5.1758 0 9.375 4.1992 9.375 9.375v487.5c0 5.1758-4.1992 9.375-9.375 9.375z"/>
  <path d="m515.62 1143.8c-0.65625 0-1.3516-0.074219-2.0234-0.22656-5.0625-1.125-8.2305-6.1328-7.125-11.195l37.5-168.75c1.125-5.043 6.0742-8.1953 11.195-7.125 5.0625 1.125 8.2305 6.1328 7.125 11.195l-37.5 168.75c-0.97656 4.3711-4.8789 7.3516-9.1719 7.3516z"/>
  <path d="m815.62 1143.8c-4.293 0-8.1953-2.9805-9.1484-7.3516l-37.5-168.75c-1.125-5.0625 2.0625-10.07 7.125-11.195 5.1172-1.0703 10.07 2.082 11.195 7.125l37.5 168.75c1.125 5.0625-2.0625 10.07-7.125 11.195-0.69531 0.15234-1.3906 0.22656-2.0469 0.22656z"/>
  <path d="m928.12 975h-717.68c-33.336 0-60.449-27.488-60.449-61.293v-191.83c0-5.1758 4.1992-9.375 9.375-9.375s9.375 4.1992 9.375 9.375v191.83c0 23.457 18.695 42.543 41.699 42.543h717.68c5.1758 0 9.375 4.1992 9.375 9.375s-4.1992 9.375-9.375 9.375z"/>
  <path d="m1120.8 975h-42.676c-5.1758 0-9.375-4.1992-9.375-9.375s4.1992-9.375 9.375-9.375h42.676c23.004 0 41.699-19.086 41.699-42.543v-571.16c0-23.457-18.695-42.543-41.699-42.543h-473.93c-5.1758 0-9.375-4.1992-9.375-9.375s4.1992-9.375 9.375-9.375h473.93c33.336 0 60.449 27.488 60.449 61.293v571.16c0 33.805-27.113 61.293-60.449 61.293z"/>
  <path d="m1031.2 1181.2h-56.25c-31.012 0-56.25-25.238-56.25-56.25v-168.75c0-31.012 25.238-56.25 56.25-56.25h56.25c31.012 0 56.25 25.238 56.25 56.25v168.75c0 31.012-25.238 56.25-56.25 56.25zm-56.25-262.5c-20.68 0-37.5 16.82-37.5 37.5v168.75c0 20.68 16.82 37.5 37.5 37.5h56.25c20.68 0 37.5-16.82 37.5-37.5v-168.75c0-20.68-16.82-37.5-37.5-37.5z"/>
  <path d="m1003.1 1012.5c-5.1758 0-9.375-4.1992-9.375-9.375v-37.5c0-5.1758 4.1992-9.375 9.375-9.375s9.375 4.1992 9.375 9.375v37.5c0 5.1758-4.1992 9.375-9.375 9.375z"/>
  <path d="m853.12 1181.2h-375c-15.508 0-28.125-12.617-28.125-28.125s12.617-28.125 28.125-28.125h375c15.508 0 28.125 12.617 28.125 28.125s-12.617 28.125-28.125 28.125zm-375-37.5c-5.1562 0-9.375 4.1992-9.375 9.375s4.2188 9.375 9.375 9.375h375c5.1562 0 9.375-4.1992 9.375-9.375s-4.2188-9.375-9.375-9.375z"/>
  <path d="m646.88 731.25h-618.75c-5.1758 0-9.375-4.1992-9.375-9.375v-693.75c0-5.1758 4.1992-9.375 9.375-9.375h618.75c5.1758 0 9.375 4.1992 9.375 9.375v693.75c0 5.1758-4.1992 9.375-9.375 9.375zm-609.38-18.75h600v-675h-600z"/>
  <path d="m1078.1 243.75h-300c-5.1758 0-9.375-4.1992-9.375-9.375v-168.75c0-5.1758 4.1992-9.375 9.375-9.375h300c5.1758 0 9.375 4.1992 9.375 9.375v168.75c0 5.1758-4.1992 9.375-9.375 9.375zm-290.62-18.75h281.25v-150h-281.25z"/>
  <path d="m1059.4 487.5h-356.25c-5.1758 0-9.375-4.1992-9.375-9.375v-75c0-5.1758 4.1992-9.375 9.375-9.375h356.25c5.1758 0 9.375 4.1992 9.375 9.375v75c0 5.1758-4.1992 9.375-9.375 9.375zm-346.88-18.75h337.5v-56.25h-337.5z"/>
  <path d="m815.62 675h-112.5c-5.1758 0-9.375-4.1992-9.375-9.375v-75c0-5.1758 4.1992-9.375 9.375-9.375h112.5c5.1758 0 9.375 4.1992 9.375 9.375v75c0 5.1758-4.1992 9.375-9.375 9.375zm-103.12-18.75h93.75v-56.25h-93.75z"/>
  <path d="m1059.4 675h-187.5c-5.1758 0-9.375-4.1992-9.375-9.375v-75c0-5.1758 4.1992-9.375 9.375-9.375h187.5c5.1758 0 9.375 4.1992 9.375 9.375v75c0 5.1758-4.1992 9.375-9.375 9.375zm-178.12-18.75h168.75v-56.25h-168.75z"/>
  <path d="m1059.4 787.5h-787.5c-5.1758 0-9.375-4.1992-9.375-9.375s4.1992-9.375 9.375-9.375h787.5c5.1758 0 9.375 4.1992 9.375 9.375s-4.1992 9.375-9.375 9.375z"/>
  <path d="m1059.4 731.25h-356.25c-5.1758 0-9.375-4.1992-9.375-9.375s4.1992-9.375 9.375-9.375h356.25c5.1758 0 9.375 4.1992 9.375 9.375s-4.1992 9.375-9.375 9.375z"/>
  <path d="m1059.4 543.75h-356.25c-5.1758 0-9.375-4.1992-9.375-9.375s4.1992-9.375 9.375-9.375h356.25c5.1758 0 9.375 4.1992 9.375 9.375s-4.1992 9.375-9.375 9.375z"/>
  <path d="m140.62 187.5c-25.855 0-46.875-21.039-46.875-46.875s21.02-46.875 46.875-46.875 46.875 21.039 46.875 46.875-21.02 46.875-46.875 46.875zm0-75c-15.508 0-28.125 12.617-28.125 28.125s12.617 28.125 28.125 28.125 28.125-12.617 28.125-28.125-12.617-28.125-28.125-28.125z"/>
  <path d="m178.12 243.75h-75c-5.1758 0-9.375-4.1992-9.375-9.375s4.1992-9.375 9.375-9.375h75c5.1758 0 9.375 4.1992 9.375 9.375s-4.1992 9.375-9.375 9.375z"/>
  <path d="m384.38 243.75h-93.75c-5.1758 0-9.375-4.1992-9.375-9.375s4.1992-9.375 9.375-9.375h93.75c5.1758 0 9.375 4.1992 9.375 9.375s-4.1992 9.375-9.375 9.375z"/>
  <path d="m534.38 187.5c-25.855 0-46.875-21.039-46.875-46.875s21.02-46.875 46.875-46.875 46.875 21.039 46.875 46.875-21.02 46.875-46.875 46.875zm0-75c-15.508 0-28.125 12.617-28.125 28.125s12.617 28.125 28.125 28.125 28.125-12.617 28.125-28.125-12.617-28.125-28.125-28.125z"/>
  <path d="m571.88 243.75h-75c-5.1758 0-9.375-4.1992-9.375-9.375s4.1992-9.375 9.375-9.375h75c5.1758 0 9.375 4.1992 9.375 9.375s-4.1992 9.375-9.375 9.375z"/>
  <path d="m384.38 187.5h-93.75c-5.1758 0-9.375-4.1992-9.375-9.375v-75c0-5.1758 4.1992-9.375 9.375-9.375h93.75c5.1758 0 9.375 4.1992 9.375 9.375v75c0 5.1758-4.1992 9.375-9.375 9.375zm-84.375-18.75h75v-56.25h-75z"/>
  <path d="m571.88 431.25h-468.75c-5.1758 0-9.375-4.1992-9.375-9.375s4.1992-9.375 9.375-9.375h468.75c5.1758 0 9.375 4.1992 9.375 9.375s-4.1992 9.375-9.375 9.375z"/>
  <path d="m571.88 656.25h-468.75c-5.1758 0-9.375-4.1992-9.375-9.375s4.1992-9.375 9.375-9.375h468.75c5.1758 0 9.375 4.1992 9.375 9.375s-4.1992 9.375-9.375 9.375z"/>
  <path d="m984.38 131.25h-37.5c-5.1758 0-9.375-4.1992-9.375-9.375s4.1992-9.375 9.375-9.375h37.5c5.1758 0 9.375 4.1992 9.375 9.375s-4.1992 9.375-9.375 9.375z"/>
  <path d="m1021.9 187.5h-75c-5.1758 0-9.375-4.1992-9.375-9.375s4.1992-9.375 9.375-9.375h75c5.1758 0 9.375 4.1992 9.375 9.375s-4.1992 9.375-9.375 9.375z"/>
  <path d="m909.38 187.5h-75c-5.1758 0-9.375-4.1992-9.375-9.375v-56.25c0-5.1758 4.1992-9.375 9.375-9.375h75c5.1758 0 9.375 4.1992 9.375 9.375v56.25c0 5.1758-4.1992 9.375-9.375 9.375zm-65.625-18.75h56.25v-37.5h-56.25z"/>
  <path d="m534.38 843.75h-93.75c-5.1758 0-9.375-4.1992-9.375-9.375s4.1992-9.375 9.375-9.375h93.75c5.1758 0 9.375 4.1992 9.375 9.375s-4.1992 9.375-9.375 9.375z"/>
 </g>
</svg>
