<?xml version="1.0" encoding="UTF-8"?>
<svg width="1200pt" height="1200pt" version="1.1" viewBox="0 0 1200 1200" xmlns="http://www.w3.org/2000/svg">
 <g fill="#054c2e">
  <path d="m993.75 600h-168.75v-37.5h75c4.4609 0.003906 8.7773-1.5859 12.172-4.4805s5.6484-6.9062 6.3516-11.312c0.70312-4.4062-0.1875-8.918-2.5117-12.727l-91.012-148.93v-253.8c-0.03125-24.855-9.918-48.684-27.492-66.258-17.574-17.574-41.402-27.461-66.258-27.492h-487.5c-24.855 0.03125-48.684 9.918-66.258 27.492-17.574 17.574-27.461 41.402-27.492 66.258v937.5c0.03125 24.855 9.918 48.684 27.492 66.258 17.574 17.574 41.402 27.461 66.258 27.492h487.5c21.547-0.082031 42.41-7.582 59.074-21.242 16.664-13.66 28.117-32.645 32.426-53.758h171c14.918 0 29.227-5.9258 39.773-16.477 10.551-10.547 16.477-24.855 16.477-39.773v-375c0-14.918-5.9258-29.227-16.477-39.773-10.547-10.551-24.855-16.477-39.773-16.477zm-472.82-75 172.82-282.79 172.82 282.79zm105-450-18.75 37.5h-239.34l-18.75-37.5zm105.32 1050h-487.5c-14.918 0-29.227-5.9258-39.773-16.477-10.551-10.547-16.477-24.855-16.477-39.773v-937.5c0-14.918 5.9258-29.227 16.477-39.773 10.547-10.551 24.855-16.477 39.773-16.477h63.414l32.305 64.633c1.5586 3.1172 3.9531 5.7383 6.918 7.5664 2.9648 1.832 6.3789 2.8008 9.8633 2.8008h262.5c3.5 0.019531 6.9375-0.94141 9.918-2.7734 2.9844-1.832 5.3906-4.4648 6.957-7.5938l32.211-64.633h63.414c14.918 0 29.227 5.9258 39.773 16.477 10.551 10.547 16.477 24.855 16.477 39.773v192.45l-77.738-127.22c-3.6445-5.2422-9.625-8.3711-16.012-8.3711s-12.367 3.1289-16.012 8.3711l-206.25 337.5c-2.3242 3.8086-3.2148 8.3203-2.5117 12.727 0.70313 4.4062 2.957 8.418 6.3516 11.312s7.7109 4.4844 12.172 4.4805h300v37.5h-393.75c-14.918 0-29.227 5.9258-39.773 16.477-10.551 10.547-16.477 24.855-16.477 39.773v375c0 14.918 5.9258 29.227 16.477 39.773 10.547 10.551 24.855 16.477 39.773 16.477h390.28c-3.8633 10.926-11.008 20.395-20.453 27.105-9.4492 6.7109-20.738 10.344-32.328 10.395zm281.25-93.75c0 4.9727-1.9766 9.7422-5.4922 13.258-3.5156 3.5156-8.2852 5.4922-13.258 5.4922h-600c-4.9727 0-9.7422-1.9766-13.258-5.4922-3.5156-3.5156-5.4922-8.2852-5.4922-13.258v-375c0-4.9727 1.9766-9.7422 5.4922-13.258 3.5156-3.5156 8.2852-5.4922 13.258-5.4922h600c4.9727 0 9.7422 1.9766 13.258 5.4922 3.5156 3.5156 5.4922 8.2852 5.4922 13.258z"/>
  <path d="m431.25 787.5h112.5c4.9727 0 9.7422-1.9766 13.258-5.4922 3.5156-3.5156 5.4922-8.2852 5.4922-13.258v-75c0-4.9727-1.9766-9.7422-5.4922-13.258-3.5156-3.5156-8.2852-5.4922-13.258-5.4922h-112.5c-4.9727 0-9.7422 1.9766-13.258 5.4922-3.5156 3.5156-5.4922 8.2852-5.4922 13.258v75c0 4.9727 1.9766 9.7422 5.4922 13.258 3.5156 3.5156 8.2852 5.4922 13.258 5.4922zm18.75-75h75v37.5h-75z"/>
  <path d="m862.5 675h112.5v37.5h-112.5z"/>
  <path d="m412.5 900h112.5v37.5h-112.5z"/>
  <path d="m562.5 900h112.5v37.5h-112.5z"/>
  <path d="m712.5 900h112.5v37.5h-112.5z"/>
  <path d="m862.5 900h112.5v37.5h-112.5z"/>
  <path d="m412.5 975h75v37.5h-75z"/>
  <path d="m525 975h187.5v37.5h-187.5z"/>
  <path d="m862.5 975h37.5v37.5h-37.5z"/>
  <path d="m937.5 975h37.5v37.5h-37.5z"/>
  <path d="m675 300h37.5v111.05h-37.5z"/>
  <path d="m675 448.55h37.5v37.5h-37.5z"/>
 </g>
</svg>
