<svg id="Group_615" data-name="Group 615" xmlns="http://www.w3.org/2000/svg" xmlns:xlink="http://www.w3.org/1999/xlink" width="121.001" height="118.059" viewBox="0 0 121.001 118.059">
  <defs>
    <clipPath id="clip-path">
      <rect id="Rectangle_588" data-name="Rectangle 588" width="121.001" height="118.059" fill="none"/>
    </clipPath>
  </defs>
  <g id="Group_614" data-name="Group 614" clip-path="url(#clip-path)">
    <path id="Path_843" data-name="Path 843" d="M49.741,0A49.739,49.739,0,1,1,29.2,95.051L7.425,103.582l5.3-20.619A49.735,49.735,0,0,1,49.741,0M37.582,20.827c5.871-2.374,12.576-3.365,18.5-.611a15.342,15.342,0,0,1,9,13.464c.318,7.011-3.717,13.256-9.17,17.3a6.066,6.066,0,0,0-1.9,2.792c-.374,1.106.025,2.231,0,3.372a5.339,5.339,0,0,1-10.675-.212c.053-2.543-.318-4.063.548-6.6a16.762,16.762,0,0,1,5.637-7.912c2.558-1.9,5.039-4.9,4.883-8.273a4.731,4.731,0,0,0-2.8-4.225c-3.125-1.449-6.911-.436-9.937.813C35.329,33.348,31.188,23.411,37.582,20.827ZM48.03,67.792a6.569,6.569,0,1,1-6.569,6.569A6.565,6.565,0,0,1,48.03,67.792Z" transform="translate(0)" fill="#eb9c46" fill-rule="evenodd"/>
    <path id="Path_844" data-name="Path 844" d="M175.86,198.338a40.854,40.854,0,0,0,42.237,5.21l17.87,7-4.353-16.926a40.812,40.812,0,0,0-5.029-59.266,57.057,57.057,0,0,1,.548,7.874A56.339,56.339,0,0,1,175.86,198.338Z" transform="translate(-121.062 -92.493)" fill="#cc9ae2" fill-rule="evenodd"/>
  </g>
</svg>
