<svg id="Group_602" data-name="Group 602" xmlns="http://www.w3.org/2000/svg" xmlns:xlink="http://www.w3.org/1999/xlink" width="76.744" height="94.379" viewBox="0 0 76.744 94.379">
  <defs>
    <clipPath id="clip-path">
      <rect id="Rectangle_568" data-name="Rectangle 568" width="76.744" height="94.379" fill="#465beb"/>
    </clipPath>
  </defs>
  <g id="Group_601" data-name="Group 601" clip-path="url(#clip-path)">
    <path id="Path_834" data-name="Path 834" d="M76.736,84.205V30.058a1.574,1.574,0,0,0-.021-.231V29.8a1.136,1.136,0,0,0-.284-.473l-.095-.095L74.1,26.989l-5.78-5.78L60.94,13.831l-7.1-7.1c-1.682-1.671-3.363-3.363-5.055-5.045C48.391,1.293,48,.893,47.6.5A1.547,1.547,0,0,0,46.51.021C44.891,0,43.262,0,41.633,0H12.847C11.3,0,9.767.021,8.222.021A8.206,8.206,0,0,0,.014,7.956c-.011.652,0,1.314,0,1.965V84.552c0,.757-.042,1.534.021,2.291A8.218,8.218,0,0,0,8.2,94.358c1.093,0,2.176.021,3.258.021H64.986c1.167,0,2.323-.021,3.489-.021a8.192,8.192,0,0,0,8.093-6.506,19.2,19.2,0,0,0,.168-3.647M61.6,77.038a.969.969,0,0,1-.315.746,1.209,1.209,0,0,1-.179.147c-.042.021-.084.063-.137.063-.032,0-.063.032-.095.042-.011,0-.021.011-.032.011s-.021.011-.042.011v.01c-.021,0-.053.021-.074.021h-.252c-1.8.063-3.6,0-5.392,0H16.21a1.077,1.077,0,0,1-1.062-1.051V69.229a.156.156,0,0,1,.011-.074.063.063,0,0,1,.011-.042.149.149,0,0,1,.021-.063c0-.011.011-.032.011-.042s.011-.032.011-.042a.01.01,0,0,1,.011-.011.149.149,0,0,0,.021-.063c0-.011,0-.011.011-.021s.011-.032.021-.042v-.011a.01.01,0,0,1,.011-.011.457.457,0,0,1,.042-.074c.011-.021.021-.032.032-.053s.032-.042.053-.063a2.018,2.018,0,0,1,.158-.147l.032-.032c.011-.011.032-.021.042-.032a287.789,287.789,0,0,0,.084-.042l.063-.032c.021-.011.053-.021.074-.032s.042-.011.063-.021h.032c.021,0,.032-.011.053-.011h.179c.021,0,.053-.021.074-.021h.011c1.8-.063,3.6-.021,5.392-.021H60.52a1.124,1.124,0,0,1,1.062,1.1v7.7Zm0-21.556v.084a.291.291,0,0,1-.011.095.247.247,0,0,1-.021.084c0,.021-.011.032-.011.053s-.011.042-.021.063a1.062,1.062,0,0,1-.074.158c-.011.011-.011.021-.021.032s-.021.032-.032.042-.042.053-.063.074l-.032.032-.032.032-.042.042c-.011.011-.032.021-.042.032l-.032.032c-.011.011-.032.021-.042.032s-.021.011-.032.021-.01.011-.021.011a.037.037,0,0,0-.021.011h-.032c-.011,0-.021.011-.042.021h-.011c-.021.011-.032.011-.053.021s-.053.021-.084.032h-.011a1.172,1.172,0,0,1-.284.032.079.079,0,0,0-.053.011h-.021c-1.8.105-3.6,0-5.392,0H16.21a1.086,1.086,0,0,1-1.062-1.061V47.736a1.424,1.424,0,0,1,.021-.21.566.566,0,0,1,.032-.105l.032-.095c0-.011.011-.021.011-.032a.033.033,0,0,1,.011-.021c.011-.011.011-.032.021-.042l.063-.095c0-.011.011-.011.021-.021a.01.01,0,0,1,.011-.011c.011-.011.021-.032.032-.042v-.011c.011-.011.021-.032.032-.042L15.443,47a.948.948,0,0,1,.105-.095l.032-.032.095-.063c.011-.011.032-.011.042-.021.032-.021.063-.032.095-.053.011-.011.032-.011.042-.021s.032-.011.053-.021.042-.011.063-.021.063-.011.084-.021.053-.011.074-.011h.084a.063.063,0,0,0,.042-.011c.011,0,.011,0,.021-.011h.021c1.8-.063,3.6-.021,5.4-.021H60.551a1.115,1.115,0,0,1,1.062,1.093v7.788ZM66.952,30.5a1.076,1.076,0,0,1-1.135.61H46.71a1.087,1.087,0,0,1-1.083-1.04v-19.3a1.08,1.08,0,0,1,1.818-.746c.8.8,1.619,1.6,2.417,2.407q5.187,5.2,10.384,10.384Q63.431,26,66.626,29.2a.693.693,0,0,1,.221.242.928.928,0,0,1,.105,1.062" transform="translate(0)" fill="#465beb"/>
  </g>
</svg>
