<svg id="Component_57_1" data-name="Component 57 – 1" xmlns="http://www.w3.org/2000/svg" xmlns:xlink="http://www.w3.org/1999/xlink" width="21.038" height="20.998" viewBox="0 0 21.038 20.998">
  <defs>
    <clipPath id="clip-path">
      <rect id="Rectangle_831" data-name="Rectangle 831" width="21.038" height="20.998" fill="none"/>
    </clipPath>
  </defs>
  <g id="Group_781" data-name="Group 781" clip-path="url(#clip-path)">
    <path id="Path_1065" data-name="Path 1065" d="M22.447,3.91H9.286A1.316,1.316,0,0,0,7.97,5.226V21.019a1.32,1.32,0,0,0,1.316,1.316H22.447a1.316,1.316,0,0,0,1.316-1.316V5.226A1.312,1.312,0,0,0,22.447,3.91m-1.461,8.66c-.836,2.3-4.422,4.738-5.021,5.133a.161.161,0,0,1-.171,0c-.592-.355-3.9-2.454-5.014-5.133-1.092-2.626,3.192-6.153,5.014-2.428a.161.161,0,0,0,.283.007c2.047-3.764,5.85-.191,4.909,2.422" transform="translate(-2.725 -1.337)"/>
    <path id="Path_1066" data-name="Path 1066" d="M15.793,1.257H6.561A2.631,2.631,0,0,0,3.929,3.889V18.425H1.316A1.316,1.316,0,0,1,0,17.109V1.316A1.32,1.32,0,0,1,1.316,0H14.477a1.317,1.317,0,0,1,1.316,1.257" transform="translate(0 0)"/>
  </g>
</svg>
