<svg id="Component_55_1" data-name="Component 55 – 1" xmlns="http://www.w3.org/2000/svg" xmlns:xlink="http://www.w3.org/1999/xlink" width="130.777" height="78.172" viewBox="0 0 130.777 78.172">
  <defs>
    <clipPath id="clip-path">
      <rect id="Rectangle_750" data-name="Rectangle 750" width="58.001" height="56.146" transform="translate(0 0)" fill="#064d2e"/>
    </clipPath>
    <clipPath id="clip-path-2">
      <rect id="Rectangle_588" data-name="Rectangle 588" width="70.71" height="68.991" fill="#064d2e"/>
    </clipPath>
  </defs>
  <g id="Group_755" data-name="Group 755" transform="translate(0 22.026)">
    <g id="Group_754" data-name="Group 754" clip-path="url(#clip-path)">
      <path id="Path_1011" data-name="Path 1011" d="M12,56.146a12,12,0,0,0,12-12v-2a5,5,0,1,1,10,0v2a12,12,0,0,0,24,0v-32a12,12,0,0,0-23.48-3.5,10.9,10.9,0,0,0-11,0A12,12,0,0,0,0,12.146v32a12,12,0,0,0,12,12m0-6a6,6,0,1,1,6-6,6,6,0,0,1-6,6m34,0a6,6,0,1,1,6-6,6,6,0,0,1-6,6m-6-38a6,6,0,1,1,12,0v21.62a11.9,11.9,0,0,0-12,0Zm-11,1a5,5,0,0,1,5,5v14.21a10.9,10.9,0,0,0-10,0V18.146a5,5,0,0,1,5-5m-17-7a6,6,0,0,1,6,6v21.62a11.9,11.9,0,0,0-12,0V12.146a6,6,0,0,1,6-6" fill="#064d2e"/>
    </g>
  </g>
  <g id="Group_614" data-name="Group 614" transform="translate(60.067)" clip-path="url(#clip-path-2)">
    <path id="Path_843" data-name="Path 843" d="M29.067,0A29.066,29.066,0,1,1,17.062,55.545L4.339,60.531l3.1-12.049A29.064,29.064,0,0,1,29.067,0M21.962,12.171c3.431-1.388,7.349-1.967,10.813-.357a8.965,8.965,0,0,1,5.257,7.868c.186,4.1-2.172,7.746-5.359,10.11a3.545,3.545,0,0,0-1.111,1.632,6.327,6.327,0,0,0,0,1.97,3.12,3.12,0,0,1-6.238-.124,10.622,10.622,0,0,1,.32-3.857A9.8,9.8,0,0,1,28.94,24.79c1.495-1.109,2.944-2.864,2.853-4.835a2.765,2.765,0,0,0-1.637-2.469c-1.826-.847-4.039-.255-5.807.475C20.645,19.487,18.226,13.681,21.962,12.171Zm6.106,27.445a3.838,3.838,0,1,1-3.838,3.838A3.836,3.836,0,0,1,28.068,39.616Z" transform="translate(0)" fill="#064d2e" fill-rule="evenodd"/>
  </g>
</svg>
