<?xml version="1.0" encoding="UTF-8"?>
<svg id="Layer_1" data-name="Layer 1" xmlns="http://www.w3.org/2000/svg" viewBox="0 0 1100 250">
  <rect width="1100" height="250" style="fill: #054d2d; stroke-width: 0px;"/>
  <g>
    <path d="m630.35,138.06h0s-14.48-16.91-14.48-16.91h0c-.72-.82-1.11-1.88-1.12-2.97v-13.71c.01-14.6-4.34-28.86-12.51-40.96-8.17-12.1-19.77-21.48-33.31-26.93-13.54-5.45-28.4-6.72-42.68-3.64-14.27,3.07-27.29,10.35-37.39,20.89-10.1,10.54-16.81,23.86-19.27,38.25-2.46,14.39-.56,29.18,5.46,42.48,3.27,6.5,7.41,12.51,12.31,17.89,1.83,2.28,3.72,4.57,5.55,6.85,6.74,8.49,11.82,18.18,14.96,28.55,2.37,8.63,3.68,17.51,3.91,26.45.05,1.18.55,2.3,1.4,3.11.85.82,1.99,1.27,3.17,1.27h45.85c1.21,0,2.37-.48,3.23-1.34.86-.86,1.34-2.02,1.34-3.23v-9.14c0-3.63,1.44-7.12,4.01-9.69,2.57-2.57,6.06-4.01,9.69-4.01h20.56c3.64,0,7.12-1.44,9.69-4.01,2.57-2.57,4.01-6.06,4.01-9.69v-27.41c0-1.21.48-2.37,1.34-3.23.86-.86,2.02-1.34,3.23-1.34h7.56c1.17,0,2.3-.45,3.15-1.26.85-.81,1.36-1.91,1.42-3.08.06-1.17-.33-2.32-1.09-3.21Z" style="fill: #eaac51; stroke-width: 0px;"/>
    <g>
      <rect x="506.63" y="65.96" width="71.27" height="71.27" rx="11.76" ry="11.76" style="fill: #054d2d; stroke-width: 0px;"/>
      <g>
        <circle cx="525.33" cy="84.66" r="7.74" style="fill: #eaac51; stroke-width: 0px;"/>
        <circle cx="559.19" cy="118.53" r="7.74" style="fill: #eaac51; stroke-width: 0px;"/>
        <circle cx="542.26" cy="101.5" r="7.74" style="fill: #eaac51; stroke-width: 0px;"/>
      </g>
    </g>
  </g>
</svg>