<svg id="Component_20_1" data-name="Component 20 – 1" xmlns="http://www.w3.org/2000/svg" xmlns:xlink="http://www.w3.org/1999/xlink" width="110.577" height="104.614" viewBox="0 0 110.577 104.614">
    <defs>
      <clipPath id="clip-path">
        <rect id="Rectangle_527" data-name="Rectangle 527" width="92.749" height="79.179" fill="#465beb"/>
      </clipPath>
      <clipPath id="clip-path-2">
        <path id="Path_56" data-name="Path 56" d="M0-257.449H69.355v-65.025H0Z" transform="translate(0 322.474)" fill="none"/>
      </clipPath>
    </defs>
    <g id="Group_560" data-name="Group 560" transform="translate(223.626 -2770.274)">
      <g id="Group_559" data-name="Group 559" transform="translate(-223.626 2795.709)">
        <path id="Path_794" data-name="Path 794" d="M14.676,0,0,17.61,44.32,74.551,87.466,17.9,72.5,0Z" transform="translate(2.641 2.314)" fill="#465beb"/>
        <g id="Group_558" data-name="Group 558" transform="translate(0 0)">
          <g id="Group_557" data-name="Group 557" clip-path="url(#clip-path)">
            <path id="Path_793" data-name="Path 793" d="M92.743,20.263a1.961,1.961,0,0,0-.163-.916c-.017-.042,0-.088-.023-.129s-.074-.068-.1-.112a1.858,1.858,0,0,0-.131-.256L77.829.742A1.982,1.982,0,0,0,76.282,0H16.463a1.984,1.984,0,0,0-1.547.742L.423,18.85a1.857,1.857,0,0,0-.131.256c-.026.044-.078.065-.1.112s-.006.087-.023.129a1.958,1.958,0,0,0-.163.916c0,.011,0,.022,0,.033a1.954,1.954,0,0,0,.359.893c.024.035.02.08.045.114l44.4,57.112c.024.03.063.042.088.071a1.942,1.942,0,0,0,.428.348,1.907,1.907,0,0,0,.244.159c.027.012.043.036.071.047a1.989,1.989,0,0,0,.731.139c.016,0,.03-.01.046-.011s.022.011.035.011a1.975,1.975,0,0,0,1.818-1.2L92.341,21.3c.026-.033.022-.079.046-.114a1.953,1.953,0,0,0,.359-.893c0-.011,0-.022,0-.033M76.865,5.876l9.791,12.232H72Zm-3.5-1.917L68.229,16.876,52.031,3.959ZM63.424,18.108H29.388L46.376,4.514ZM40.728,3.959,24.6,16.87,19.461,3.959ZM15.934,5.809l4.891,12.3H6.091ZM6.019,22.067H22.4L39.551,65.2ZM46.413,71.738,26.662,22.067h39.5Zm6.946-6.75L70.427,22.068h16.3Z" transform="translate(0)" fill="#465beb"/>
          </g>
        </g>
      </g>
      <g id="Group_61" data-name="Group 61" transform="translate(-182.405 2770.274)">
        <g id="Group_60" data-name="Group 60" transform="translate(0 0)" clip-path="url(#clip-path-2)">
          <g id="Group_56" data-name="Group 56" transform="translate(0 15.009)">
            <path id="Path_52" data-name="Path 52" d="M-198.024-99.012c-18.559,3.561-21.446,6.449-25.008,25.008-3.561-18.559-6.449-21.446-25.008-25.008,18.559-3.561,21.446-6.449,25.008-25.008,3.561,18.559,6.449,21.446,25.008,25.008" transform="translate(248.04 124.02)" fill="#eb9c46"/>
          </g>
          <g id="Group_57" data-name="Group 57" transform="translate(0 15.009)">
            <path id="Path_53" data-name="Path 53" d="M-198.024-99.012c-18.559,3.561-21.446,6.449-25.008,25.008-3.561-18.559-6.449-21.446-25.008-25.008,18.559-3.561,21.446-6.449,25.008-25.008,3.561,18.559,6.449,21.446,25.008,25.008" transform="translate(248.04 124.02)" fill="#eb9c46"/>
          </g>
          <g id="Group_58" data-name="Group 58" transform="translate(30.302 0)">
            <path id="Path_54" data-name="Path 54" d="M-99.012-49.506c-9.28,1.781-10.723,3.224-12.5,12.5-1.781-9.28-3.224-10.723-12.5-12.5,9.28-1.781,10.723-3.224,12.5-12.5,1.781,9.28,3.224,10.723,12.5,12.5" transform="translate(124.02 62.01)" fill="#cc9ae2"/>
          </g>
          <g id="Group_59" data-name="Group 59" transform="translate(30.302 0)">
            <path id="Path_55" data-name="Path 55" d="M-99.012-49.506c-9.28,1.781-10.723,3.224-12.5,12.5-1.781-9.28-3.224-10.723-12.5-12.5,9.28-1.781,10.723-3.224,12.5-12.5,1.781,9.28,3.224,10.723,12.5,12.5" transform="translate(124.02 62.01)" fill="#eb9c46"/>
          </g>
          <g id="Group_561" data-name="Group 561" transform="translate(49.016 20.713)">
            <path id="Path_55-2" data-name="Path 55" d="M-106.439-53.22c-6.524,1.252-7.539,2.267-8.79,8.79-1.252-6.524-2.267-7.539-8.79-8.79,6.524-1.252,7.539-2.267,8.79-8.79,1.252,6.524,2.267,7.539,8.79,8.79" transform="translate(124.02 62.01)" fill="#eb9c46"/>
          </g>
        </g>
      </g>
    </g>
  </svg>
  