<?xml version="1.0" encoding="UTF-8"?>
<svg id="Layer_2" data-name="Layer 2" xmlns="http://www.w3.org/2000/svg" viewBox="0 0 1100 250">
  <defs>
    <style>
      .cls-1 {
        fill: #465bec;
      }

      .cls-1, .cls-2 {
        stroke-width: 0px;
      }

      .cls-2 {
        fill: #ebad51;
      }
    </style>
  </defs>
  <g id="Layer_1-2" data-name="Layer 1">
    <rect class="cls-2" width="1100" height="250"/>
    <path class="cls-1" d="m471.51,125h-6.21c0-46.7,37.99-84.7,84.7-84.7,35.08,0,65.91,21.14,78.67,53.26l5.07-20.35,6.02,1.5-8.08,32.45-29.71-10.98,2.15-5.82,19.43,7.18c-11.41-30.7-40.43-51.03-73.54-51.03-43.28,0-78.49,35.21-78.49,78.49h0Zm78.49,78.49c-33.12,0-62.14-20.34-73.54-51.03l19.43,7.18,2.15-5.82-29.71-10.98-8.08,32.45,6.02,1.5,5.07-20.35c12.76,32.11,43.59,53.26,78.67,53.26,46.7,0,84.7-37.99,84.7-84.7h-6.21c0,43.28-35.21,78.49-78.49,78.49h0Zm-11.74-89.27c1.89-1.89,1.89-4.97,0-6.86-.95-.95-2.19-1.42-3.43-1.42s-2.48.47-3.43,1.42c-1.89,1.89-1.89,4.97,0,6.86,1.89,1.89,4.97,1.89,6.86,0Zm62.65,11.74c0,28.11-22.79,50.9-50.9,50.9s-50.9-22.79-50.9-50.9,22.79-50.9,50.9-50.9,50.9,22.79,50.9,50.9h0Zm-73.9-7.36c2.16,2.16,4.99,3.23,7.82,3.23s5.66-1.08,7.82-3.23c4.31-4.31,4.31-11.33,0-15.64-4.31-4.31-11.33-4.31-15.64,0-4.31,4.31-4.31,11.33,0,15.64h0Zm46.2-11.46l-4.39-4.39-40.41,40.41,4.39,4.39,40.41-40.41Zm-.2,26.17c-4.31-4.31-11.33-4.31-15.64,0-4.31,4.31-4.31,11.33,0,15.64,2.16,2.16,4.99,3.23,7.82,3.23s5.66-1.08,7.82-3.23c4.31-4.31,4.31-11.33,0-15.64h0Zm-4.39,4.39c-.95-.95-2.19-1.42-3.43-1.42s-2.48.47-3.43,1.42c-1.89,1.89-1.89,4.97,0,6.86s4.97,1.89,6.86,0c1.89-1.89,1.89-4.97,0-6.86h0Z"/>
  </g>
</svg>