<?xml version="1.0" encoding="UTF-8"?>
<svg id="Layer_1" data-name="Layer 1" xmlns="http://www.w3.org/2000/svg" viewBox="0 0 1100 250">
  <rect width="1100" height="250" style="fill: #ebad51; stroke-width: 0px;"/>
  <g>
    <path d="m497.29,212.03h105.26c2.57.02,5.05-.97,6.89-2.78,1.84-1.8,2.89-4.26,2.91-6.83v-7.62h-124.58v7.62c-.04,2.54.94,5,2.73,6.8,1.79,1.81,4.23,2.82,6.77,2.81h0Z" style="fill: #475bec; stroke-width: 0px;"/>
    <path d="m535.93,94.96h28.27v42.41h-28.27v-42.41Z" style="fill: #475bec; stroke-width: 0px;"/>
    <path d="m571.27,94.96h24.3v42.41h-24.3v-42.41Z" style="fill: #475bec; stroke-width: 0px;"/>
    <path d="m504.57,94.96h24.3v42.41h-24.3v-42.41Z" style="fill: #475bec; stroke-width: 0px;"/>
    <path d="m619.43,109.1h22.97v34.02h-22.97v-34.02Z" style="fill: #475bec; stroke-width: 0px;"/>
    <path d="m612.36,47.58c-.03-2.57-1.08-5.03-2.91-6.83-1.84-1.8-4.32-2.8-6.89-2.78h-105.26c-2.54-.01-4.99,1-6.77,2.81-1.79,1.81-2.77,4.26-2.73,6.8v140.15h124.58V47.58Zm-111.4,23.08h97.92c1.26,0,2.43.67,3.06,1.77.63,1.09.63,2.44,0,3.53-.63,1.09-1.8,1.77-3.06,1.77h-97.92c-1.26,0-2.43-.67-3.06-1.77-.63-1.09-.63-2.44,0-3.53.63-1.09,1.8-1.77,3.06-1.77Zm97.92,91h-97.92c-1.26,0-2.43-.67-3.06-1.77-.63-1.09-.63-2.44,0-3.53.63-1.09,1.8-1.77,3.06-1.77h97.92c1.26,0,2.43.67,3.06,1.77.63,1.09.63,2.44,0,3.53-.63,1.09-1.8,1.77-3.06,1.77Zm3.76-20.76c0,.94-.37,1.84-1.04,2.5-.66.66-1.56,1.04-2.5,1.04h-98.07c-.94,0-1.84-.37-2.5-1.04-.66-.66-1.04-1.56-1.04-2.5v-49.48c0-.94.37-1.84,1.04-2.5.66-.66,1.56-1.04,2.5-1.04h98.07c.94,0,1.84.37,2.5,1.04.66.66,1.04,1.56,1.04,2.5v49.48Z" style="fill: #475bec; stroke-width: 0px;"/>
    <path d="m633.12,68.02v37.1h7.07v-36.81c6.63-1.38,12.03-7.46,12.03-14.73,0-3.75-1.39-7.36-3.92-10.13-2.52-2.77-5.99-4.5-9.72-4.84-3.73-.34-7.45.72-10.44,2.98-2.99,2.26-5.02,5.55-5.71,9.24-.68,3.68.03,7.49,2.01,10.67,1.98,3.18,5.07,5.51,8.68,6.53h0Z" style="fill: #475bec; stroke-width: 0px;"/>
  </g>
</svg>